<?xml version="1.0" encoding="UTF-8"?>
<svg id="Capa_2" xmlns="http://www.w3.org/2000/svg" viewBox="0 0 27.41 27.39">
  <defs>
    <style>
      .cls-1 {
        fill-rule: evenodd;
      }
    </style>
  </defs>
  <g id="_x31_0">
    <path class="cls-1" d="M13.69,2.25c-3.17,0-5.99,1.27-8.09,3.35-2.05,2.08-3.33,4.9-3.33,8.09s1.28,6.02,3.33,8.1c2.1,2.07,4.93,3.32,8.09,3.32s6.02-1.25,8.09-3.32c2.08-2.08,3.33-4.93,3.33-8.1s-1.25-6.02-3.33-8.09c-2.07-2.08-4.92-3.35-8.09-3.35h0ZM21.34,12.4h0c0-.29-.12-.58-.34-.78-.23-.24-.51-.32-.8-.32-.31,0-.57.08-.8.32l-.31.29c-.28-.83-.76-1.61-1.38-2.24-1.04-1-2.46-1.66-4.02-1.66s-2.96.65-4.02,1.66c-1.02,1.06-1.66,2.49-1.66,4.02s.64,2.95,1.66,4.02c1.06,1.02,2.48,1.67,4.02,1.67.33,0,.6-.14.83-.37.21-.18.3-.5.3-.75,0-.34-.1-.62-.3-.81-.23-.23-.5-.37-.83-.37-.94,0-1.77-.33-2.39-.99-.65-.62-1.04-1.45-1.04-2.41s.39-1.79,1.04-2.39c.62-.64,1.45-1.03,2.39-1.03s1.79.39,2.41,1.03c.4.37.68.83.86,1.33l-.88-.31c-.31-.16-.59-.11-.83,0-.29.11-.55.31-.62.63-.1.25-.1.58,0,.82.12.28.36.52.62.62l2.43.96c.05,0,.08.06.11.06.16.07.26.07.36.07h.11c.1,0,.26,0,.41-.07.16-.06.26-.14.34-.27l.04-.02h.02s.07-.08.1-.11l1.84-1.82c.21-.2.34-.45.34-.8h0ZM13.69,27.39h0c-3.76,0-7.19-1.53-9.67-4.03C1.55,20.91,0,17.48,0,13.69S1.55,6.51,4.02,4.02C6.5,1.52,9.93,0,13.69,0s7.21,1.52,9.67,4.02c2.49,2.49,4.05,5.92,4.05,9.67s-1.56,7.21-4.05,9.68c-2.47,2.5-5.89,4.03-9.67,4.03h0Z"/>
  </g>
</svg>