<?xml version="1.0" encoding="UTF-8"?>
<svg id="Capa_2" xmlns="http://www.w3.org/2000/svg" viewBox="0 0 27.41 27.41">
  <g id="_x31_0">
    <path d="M18.67,13l-4.32-4.31c-.06-.1-.06-.22,0-.33l2.96-2.96-1.91-1.92c-.07-.05-.09-.14-.07-.2.02-.07.09-.14.16-.16L27.13,0h.07c.12,0,.2.09.2.2v.07l-3.12,11.64c-.02.07-.09.14-.16.16h-.04c-.07,0-.12-.02-.16-.06l-1.96-1.97-2.97,2.95s-.09.07-.15.07c-.07,0-.12-.05-.16-.07h0ZM3.27,12.08h.06c.05,0,.12-.02.14-.06l1.98-1.97,2.97,2.95s.09.07.16.07c.04,0,.11-.05.13-.07l4.32-4.31c.08-.1.08-.22,0-.33l-2.96-2.96,1.95-1.92s.06-.14.04-.2c-.02-.07-.06-.14-.13-.16L.26,0h-.05C.15,0,.1.02.06.05,0,.11-.01.18,0,.25l3.12,11.67c.02.07.06.14.14.16h0ZM24.11,15.31h-.07s-.11.03-.13.08l-1.96,1.98-2.99-2.99s-.09-.05-.13-.05c-.07,0-.12.03-.16.05l-4.32,4.33c-.06.09-.06.22,0,.31l2.96,2.96-1.91,1.92c-.07.07-.09.14-.07.21.02.09.09.14.16.16l11.64,3.14h.07s.12-.02.16-.06c.04-.05.07-.14.04-.21l-3.14-11.67c0-.06-.07-.13-.14-.16h0ZM8.71,14.38h0s-.09-.05-.13-.05c-.07,0-.12.03-.16.05l-2.97,2.99-1.98-1.98s-.09-.08-.14-.08h-.06c-.08.03-.12.1-.14.16L0,27.14c-.02.07,0,.16.05.21.04.05.09.06.15.06h.05l11.67-3.14c.07-.02.11-.07.13-.16.02-.07,0-.14-.04-.21l-1.95-1.92,2.96-2.96c.08-.09.08-.22,0-.31l-4.32-4.33Z"/>
  </g>
</svg>