<?xml version="1.0" encoding="UTF-8"?>
<svg id="Capa_2" xmlns="http://www.w3.org/2000/svg" viewBox="0 0 27.41 27.41">
  <defs>
    <style>
      .cls-1 {
        fill-rule: evenodd;
      }
    </style>
  </defs>
  <g id="_x31_0">
    <path class="cls-1" d="M13.7,2.28c-3.17,0-6.02,1.25-8.1,3.33-2.07,2.11-3.34,4.93-3.34,8.1s1.27,6.02,3.34,8.09c2.08,2.08,4.93,3.32,8.1,3.32s6.03-1.25,8.1-3.32c2.08-2.08,3.32-4.93,3.32-8.09s-1.24-6-3.32-8.1c-2.08-2.08-4.93-3.33-8.1-3.33h0ZM13.13,10.37h0c-.72,0-1.35.31-1.79.72-.49.49-.74,1.12-.74,1.82s.25,1.32.74,1.79c.44.46,1.07.77,1.79.77.68,0,1.3-.31,1.8-.77.46-.48.72-1.12.72-1.79s-.26-1.33-.72-1.82c-.5-.42-1.12-.72-1.8-.72h0ZM13.13,17.7h0c-1.35,0-2.52-.54-3.42-1.4-.86-.88-1.38-2.08-1.38-3.39s.52-2.54,1.38-3.38c.9-.85,2.07-1.42,3.42-1.42s2.52.57,3.37,1.42c.86.84,1.37,2.05,1.37,3.38,0,.91-.23,1.76-.66,2.49l2.12,2.15c.23.23.34.52.34.8,0,.27-.1.57-.34.76-.11.13-.23.2-.34.26-.16.08-.32.13-.47.13-.1,0-.26-.05-.41-.13-.16-.05-.26-.13-.39-.26l-2.1-2.11c-.76.44-1.59.7-2.5.7h0ZM13.7,27.41h0c-3.77,0-7.19-1.53-9.67-4.02C1.53,20.93,0,17.5,0,13.71S1.53,6.52,4.03,4.03C6.51,1.54,9.94,0,13.7,0s7.22,1.54,9.68,4.03c2.5,2.49,4.03,5.92,4.03,9.69s-1.53,7.22-4.03,9.68c-2.46,2.5-5.89,4.02-9.68,4.02h0Z"/>
  </g>
</svg>