<?xml version="1.0" encoding="UTF-8"?>
<svg id="Capa_2" xmlns="http://www.w3.org/2000/svg" viewBox="0 0 27.41 27.41">
  <defs>
    <style>
      .cls-1 {
        fill-rule: evenodd;
      }
    </style>
  </defs>
  <g id="_x31_0">
    <path class="cls-1" d="M13.71,2.26c-3.17,0-6.02,1.27-8.1,3.35-2.07,2.08-3.31,4.91-3.31,8.1s1.24,6.02,3.31,8.09c2.08,2.08,4.93,3.32,8.1,3.32s6.02-1.25,8.1-3.32c2.08-2.08,3.32-4.93,3.32-8.09s-1.25-6.03-3.32-8.1c-2.08-2.08-4.94-3.35-8.1-3.35h0ZM9.97,18.66h0c-.15,0-.28-.02-.43-.08-.14-.02-.24-.1-.37-.23-.23-.17-.33-.51-.33-.8s.11-.57.33-.75l3.02-3.04-3.17-3.14c-.19-.21-.32-.49-.32-.76,0-.3.13-.57.32-.83.29-.21.55-.34.85-.34.27,0,.55.13.76.34l3.15,3.14,3.16-3.16c.18-.21.49-.31.78-.31.26,0,.57.1.8.31.21.25.34.51.34.8s-.12.57-.34.78l-3.17,3.16,3.05,3.04c.2.2.34.49.34.78s-.13.62-.34.81c-.1.13-.24.2-.34.23-.16.05-.32.07-.46.07-.13,0-.32-.03-.42-.07-.16-.03-.29-.1-.36-.23l-3.03-3.02-3.02,2.98c-.07.13-.21.21-.38.23-.11.06-.27.08-.39.08h0ZM13.71,27.41h0c-3.77,0-7.19-1.53-9.68-4.02C1.56,20.93,0,17.5,0,13.71S1.56,6.52,4.03,4.02C6.51,1.54,9.94,0,13.71,0s7.21,1.54,9.68,4.02c2.5,2.49,4.03,5.92,4.03,9.69s-1.53,7.22-4.03,9.68c-2.46,2.5-5.89,4.02-9.68,4.02h0Z"/>
  </g>
</svg>