<?xml version="1.0" encoding="UTF-8"?>
<svg id="Capa_2" xmlns="http://www.w3.org/2000/svg" viewBox="0 0 27.41 27.41">
  <defs>
    <style>
      .cls-1 {
        fill-rule: evenodd;
      }
    </style>
  </defs>
  <g id="_x31_0">
    <path class="cls-1" d="M13.71,2.26c-3.2,0-6.03,1.27-8.1,3.35-2.07,2.08-3.35,4.91-3.35,8.1s1.27,6.02,3.35,8.09c2.07,2.08,4.91,3.32,8.1,3.32s6.02-1.25,8.1-3.32c2.08-2.08,3.32-4.93,3.32-8.09s-1.24-6.03-3.32-8.1c-2.09-2.08-4.94-3.35-8.1-3.35h0ZM11.66,18.14h0c-.1,0-.26-.02-.41-.07-.16-.1-.27-.18-.34-.26l-2.58-2.57c-.23-.18-.31-.47-.31-.81,0-.28.08-.57.31-.78.21-.23.49-.3.83-.3.29,0,.55.07.78.3l1.71,1.77,5.84-5.82c.21-.21.47-.31.81-.31.28,0,.57.1.78.31.24.18.31.52.31.8s-.08.57-.31.76l-6.59,6.65c-.13.07-.24.15-.36.26-.15.05-.32.07-.47.07h0ZM13.71,27.41h0c-3.76,0-7.19-1.53-9.68-4.02C1.54,20.93,0,17.5,0,13.71S1.54,6.52,4.03,4.02C6.52,1.54,9.94,0,13.71,0s7.22,1.54,9.68,4.02c2.5,2.49,4.02,5.92,4.02,9.69s-1.53,7.22-4.02,9.68c-2.46,2.5-5.89,4.02-9.68,4.02h0Z"/>
  </g>
</svg>