<?xml version="1.0" encoding="UTF-8"?>
<svg id="Capa_2" xmlns="http://www.w3.org/2000/svg" viewBox="0 0 27.41 27.41">
  <defs>
    <style>
      .cls-1 {
        fill-rule: evenodd;
      }
    </style>
  </defs>
  <g id="_x31_0">
    <path class="cls-1" d="M13.71,2.26c-3.2,0-6.03,1.27-8.1,3.35-2.08,2.08-3.35,4.91-3.35,8.1s1.27,6.02,3.35,8.09c2.08,2.08,4.91,3.32,8.1,3.32s6.03-1.25,8.1-3.32c2.08-2.08,3.32-4.93,3.32-8.09s-1.25-6.03-3.32-8.1c-2.07-2.08-4.93-3.35-8.1-3.35h0ZM13.71,16.28h0c-.05,0-.13,0-.21-.02-.07,0-.15-.02-.23-.05-.14-.05-.26-.13-.37-.26-.02-.03-.05-.05-.08-.07l-1.87-1.85c-.21-.22-.32-.51-.32-.79,0-.31.11-.6.32-.81.27-.23.52-.31.81-.31s.57.07.8.31v.03-4.15c0-.26.12-.57.34-.75.18-.21.49-.31.81-.31.34,0,.59.1.8.31.23.18.34.49.34.75v4.15l.04-.03c.19-.23.51-.31.76-.31.28,0,.62.07.8.31.21.21.34.5.34.81,0,.28-.13.57-.34.77l-1.85,1.84s-.04.08-.1.11c-.1.13-.24.21-.34.26-.18.07-.31.07-.46.07h0ZM19.19,19.11h-10.98c-.26,0-.58-.11-.76-.31-.2-.21-.33-.49-.33-.78,0-.31.13-.6.33-.83.18-.19.5-.32.76-.32h10.98c.28,0,.57.13.77.32.21.23.4.51.4.83,0,.29-.18.57-.4.78-.2.21-.48.31-.77.31h0ZM13.71,27.41h0c-3.77,0-7.2-1.53-9.68-4.02C1.53,20.93,0,17.5,0,13.71S1.53,6.52,4.03,4.03C6.51,1.54,9.94,0,13.71,0s7.21,1.54,9.68,4.03c2.49,2.49,4.02,5.92,4.02,9.69s-1.53,7.22-4.02,9.68c-2.46,2.5-5.89,4.02-9.68,4.02h0Z"/>
  </g>
</svg>