<?xml version="1.0" encoding="UTF-8"?>
<svg id="Capa_2" xmlns="http://www.w3.org/2000/svg" viewBox="0 0 27.4 27.41">
  <defs>
    <style>
      .cls-1 {
        fill-rule: evenodd;
      }
    </style>
  </defs>
  <g id="_x31_0">
    <path class="cls-1" d="M13.7,2.26c-3.17,0-6.03,1.27-8.1,3.35-2.08,2.08-3.35,4.91-3.35,8.1s1.27,6.02,3.35,8.09c2.08,2.08,4.93,3.32,8.1,3.32s6.03-1.25,8.1-3.32c2.08-2.08,3.32-4.93,3.32-8.09s-1.25-6.03-3.32-8.1c-2.07-2.08-4.93-3.35-8.1-3.35h0ZM11.13,11.17h0c-.39,0-.86.1-1.09.38-.18.21-.34.55-.34,1.12,0,.83.91,1.69.96,1.71l3.03,3.09,3.07-3.09s.93-.88.93-1.71c0-.57-.13-.91-.34-1.12-.26-.28-.7-.38-1.09-.38-.21,0-.47.15-.7.3-.43.29-.8.65-.98.86-.08.07-.13.1-.16.15-.21.18-.47.29-.72.29-.23,0-.49-.1-.73-.29-.05-.05-.07-.08-.15-.15-.16-.21-.54-.57-1.02-.86-.23-.15-.47-.3-.67-.3h0ZM13.7,20.2h0c-.13,0-.28-.05-.47-.11-.11-.07-.23-.15-.34-.26l-3.85-3.79s-.72-.72-1.17-1.66c-.25-.52-.44-1.12-.44-1.71,0-1.17.37-2.08,1.01-2.73.63-.65,1.56-.98,2.68-.98.64,0,1.29.26,1.83.56.27.16.52.37.73.52.21-.15.44-.36.72-.52.55-.31,1.2-.56,1.84-.56,1.15,0,2.08.33,2.68.98.64.65,1.01,1.56,1.01,2.73,0,.6-.21,1.19-.44,1.71-.44.85-1.07,1.5-1.18,1.66l-3.84,3.79c-.13.1-.23.19-.36.26-.16.06-.29.11-.44.11h0ZM13.7,27.41h0c-3.76,0-7.19-1.53-9.68-4.02C1.53,20.93,0,17.5,0,13.71S1.53,6.52,4.02,4.03C6.51,1.54,9.94,0,13.7,0s7.22,1.54,9.68,4.03c2.5,2.49,4.03,5.92,4.03,9.69s-1.53,7.22-4.03,9.68c-2.46,2.5-5.89,4.02-9.68,4.02h0Z"/>
  </g>
</svg>