<?xml version="1.0" encoding="UTF-8"?>
<svg id="Capa_2" xmlns="http://www.w3.org/2000/svg" viewBox="0 0 27.42 27.41">
  <defs>
    <style>
      .cls-1 {
        fill-rule: evenodd;
      }
    </style>
  </defs>
  <g id="_x31_0">
    <path class="cls-1" d="M13.71,2.26c-3.2,0-6.03,1.27-8.1,3.35-2.08,2.08-3.36,4.91-3.36,8.1s1.27,6.02,3.36,8.09c2.07,2.08,4.9,3.32,8.1,3.32s6.02-1.25,8.09-3.32c2.09-2.08,3.3-4.96,3.3-8.09s-1.21-6.03-3.3-8.1c-2.06-2.08-4.95-3.35-8.09-3.35h0ZM11.56,18.92h0c-.18,0-.32,0-.48-.07-.1-.03-.23-.11-.36-.23-.2-.19-.31-.5-.31-.76,0-.34.11-.62.31-.83l3.56-3.53-3.56-3.51c-.2-.23-.31-.51-.31-.8s.11-.6.31-.78c.26-.24.52-.31.84-.31.25,0,.54.07.77.31l4.28,4.3c.24.21.4.5.4.78,0,.3-.15.59-.4.8l-4.28,4.31c-.08.13-.23.2-.38.23-.14.07-.29.07-.39.07h0ZM13.71,27.41h0c-3.79,0-7.22-1.53-9.68-4.02C1.53,20.89,0,17.47,0,13.71S1.53,6.49,4.03,4.02C6.49,1.54,9.92,0,13.71,0s7.19,1.54,9.68,4.02c2.49,2.47,4.03,5.9,4.03,9.69s-1.54,7.19-4.03,9.68c-2.49,2.5-5.92,4.02-9.68,4.02h0Z"/>
  </g>
</svg>