<?xml version="1.0" encoding="UTF-8"?>
<svg id="Capa_2" xmlns="http://www.w3.org/2000/svg" viewBox="0 0 27.42 22.09">
  <defs>
    <style>
      .cls-1 {
        fill-rule: evenodd;
      }
    </style>
  </defs>
  <g id="_x31_0">
    <path class="cls-1" d="M.51,0h4.13c.19,0,.5.19.5.47v4.06c0,.29-.3.47-.5.47H.51c-.19,0-.51-.18-.51-.47V.47c0-.28.32-.47.51-.47h0ZM7.82,19.97h0c-.2,0-.38-.19-.38-.4,0-.29.19-.48.38-.48h19.22c.18,0,.38.19.38.48,0,.21-.2.4-.38.4H7.82ZM.51,17.08h4.13c.19,0,.5.18.5.38v4.16c0,.28-.3.47-.5.47H.51c-.19,0-.51-.19-.51-.47v-4.16c0-.19.32-.38.51-.38h0ZM4.16,17.93H.99v3.18h3.18v-3.18ZM7.82,11.47h0c-.2,0-.38-.19-.38-.47,0-.19.19-.38.38-.38h19.22c.18,0,.38.19.38.38,0,.28-.2.47-.38.47H7.82ZM.51,8.48h4.13c.19,0,.5.19.5.5v4.14c0,.18-.3.38-.5.38H.51c-.19,0-.51-.19-.51-.38v-4.14c0-.3.32-.5.51-.5h0ZM4.16,9.35H.99v3.27h3.18v-3.27ZM7.82,2.99h0c-.2,0-.38-.19-.38-.5,0-.28.19-.48.38-.48h19.22c.18,0,.38.19.38.48,0,.3-.2.5-.38.5H7.82ZM4.16.86H.99v3.3h3.18V.86Z"/>
  </g>
</svg>