<svg width="22" height="17" viewBox="0 0 22 17" fill="none" xmlns="http://www.w3.org/2000/svg">
<path d="M10.7 0C4.9 0 0 5.7 0 8.5C0 11.3 4.9 17 10.7 17C16.5 17 21.4 11.3 21.4 8.5C21.4 5.7 16.4 0 10.7 0ZM10.7 14.9C6 14.9 2.2 10.1 2.2 8.5C2.2 6.9 6 2.1 10.7 2.1C15.4 2.1 19.2 6.9 19.2 8.5C19.2 10.1 15.4 14.9 10.7 14.9Z" fill="#003D52"/>
<path d="M10.6999 12.8002C13.0747 12.8002 14.9999 10.875 14.9999 8.5002C14.9999 6.12537 13.0747 4.2002 10.6999 4.2002C8.32508 4.2002 6.3999 6.12537 6.3999 8.5002C6.3999 10.875 8.32508 12.8002 10.6999 12.8002Z" fill="#003D52"/>
</svg>
