<?xml version="1.0" encoding="UTF-8"?>
<svg id="Capa_2" data-name="Capa 2" xmlns="http://www.w3.org/2000/svg" viewBox="0 0 4025.28 2721.38">
  <defs>
    <style>
      .cls-1 {
        fill: none;
        stroke: #bfbfbf;
        stroke-linejoin: round;
        stroke-width: 3px;
      }

      .cls-2 {
        fill-rule: evenodd;
      }

      .cls-2, .cls-3, .cls-4 {
        stroke-width: 0px;
      }

      .cls-2, .cls-4 {
        fill: #7f7f7f;
      }

      .cls-3 {
        fill: #f2f2f2;
      }
    </style>
  </defs>
  <g id="Correcto">
    <path class="cls-2" d="M4025.28,2721.38H0V95.53h4025.28v2625.85ZM3928.5,206.65H327.49v2492.4h3601.01V206.65Z"/>
    <path class="cls-3" d="M1755.7,1603.63l98-14.5c2.65,30.33,11.02,53.51,25.12,69.55,14.11,16.04,30.71,24.06,49.81,24.06,20.86,0,38.49-9.53,52.89-28.57,14.4-19.04,21.59-45.41,21.59-79.1,0-31.35-6.91-55.96-20.73-73.83-13.82-17.87-30.58-26.8-50.29-26.8-12.93,0-28.37,3.07-46.31,9.22l10.99-100.63c26.21.58,46.97-6.43,62.28-21.03,15.02-14.61,22.53-35.21,22.53-61.79,0-22.21-5.44-39.59-16.32-52.15-10.88-12.56-24.84-18.84-41.89-18.84s-31.83,7.25-44.32,21.75c-12.5,14.51-19.92,35.97-22.27,64.38l-93.61-19.33c9.68-58.89,28.61-101.66,56.77-128.32,28.17-26.66,63.66-39.99,106.5-39.99,48.11,0,86.32,17.11,114.63,51.34,28.31,34.22,42.46,72.11,42.46,113.65,0,28.08-6.37,53.39-19.11,75.91-12.75,22.53-31.86,42.27-57.35,59.24,29.59,7.91,53.69,25.34,72.29,52.3,18.6,26.95,27.9,60.64,27.9,101.07,0,58.89-17.52,107.59-52.58,146.12-35.05,38.53-76.77,57.79-125.17,57.79s-85.59-16.22-117.71-48.66c-32.12-32.45-50.82-76.72-56.1-132.84Z"/>
    <path class="cls-3" d="M1465.92,1659.44v114.7h-355.08c3.81-43.32,15.45-84.52,34.93-123.6,19.49-39.09,57.35-90.39,113.6-153.91,44.53-50.64,71.93-84.89,82.18-102.75,15.23-26.05,22.85-52.25,22.85-78.6,0-28.1-6.3-49.32-18.89-63.66-12.6-14.35-29.16-21.52-49.66-21.52-44.83,0-69,33.54-72.51,100.63l-100.64-12.3c6.15-65.63,24.39-113.82,54.71-144.58,30.33-30.76,70.68-46.14,121.07-46.14,55.37,0,97.12,18,125.25,54,28.12,36.01,42.19,77.29,42.19,123.83,0,26.35-3.59,51.88-10.77,76.62-7.18,24.74-18.24,49.62-33.18,74.65-14.94,25.02-39.84,57-74.71,95.94-32.52,36.59-53.1,60.74-61.74,72.44-8.64,11.71-15.6,23.13-20.87,34.25h201.27Z"/>
    <path class="cls-3" d="M3657.77,1557.28c0,40.65,7.56,71.72,22.7,93.22,15.14,21.49,32.4,32.23,51.8,32.23s34.46-8.91,46.95-26.75c12.49-17.84,18.73-47.08,18.73-87.73s-6.76-72.81-20.28-92.11c-13.52-19.3-30.27-28.95-50.25-28.95s-35.85,9.21-49.37,27.63-20.28,45.91-20.28,82.46ZM3887.16,1287.67l-98,13.18c-4.7-47.75-23.95-71.63-57.74-71.63-22.04,0-40.34,12.01-54.89,36.03-14.54,24.03-23.73,72.51-27.55,145.46,12.62-18.16,26.71-31.78,42.26-40.87,15.56-9.08,32.72-13.62,51.51-13.62,41.38,0,77.48,19.24,108.29,57.73,30.82,38.49,46.23,89.63,46.23,153.43,0,67.9-16.28,121.17-48.84,159.8s-72.9,57.95-121,57.95c-52.8,0-96.58-25.11-131.34-75.32-34.76-50.21-52.14-133.43-52.14-249.66s18.04-202.89,54.12-254.71c36.08-51.82,82.43-77.73,139.05-77.73,39.01,0,71.94,13.22,98.78,39.66,26.84,26.44,43.93,66.54,51.26,120.3Z"/>
    <path class="cls-3" d="M663.53,1774.14h-101.07v-465.38c-37.8,42.48-81.45,73.68-130.96,93.61v-112.06c28.12-11.4,57.27-31.78,87.45-61.14,30.18-29.37,51.12-63.19,62.84-101.46h81.74v646.43Z"/>
    <path class="cls-3" d="M2600.46,1535.97v-219.94l-121.28,219.94h121.28ZM2600.46,1774.15v-129.64h-216.21v-108.1l228.96-408.7h85.25v408.26h65.48v108.54h-65.48v129.64h-98Z"/>
    <path class="cls-3" d="M3021.61,1597.49l123.05-12.74c3.51,27.83,13.91,49.87,31.2,66.13,17.28,16.26,37.21,24.39,59.77,24.39,25.78,0,47.6-10.47,65.47-31.42,17.87-20.95,26.81-52.51,26.81-94.7,0-39.55-8.86-69.21-26.59-88.99-17.72-19.78-40.79-29.66-69.21-29.66-35.45,0-67.24,15.67-95.36,47.02l-100.2-14.5,63.28-335.31h326.52v115.58h-232.91l-19.34,109.42c27.54-13.77,55.67-20.65,84.38-20.65,54.78,0,101.22,19.92,139.3,59.77,38.09,39.84,57.13,91.55,57.13,155.12,0,53.03-15.38,100.34-46.14,141.95-41.89,56.83-100.05,85.25-174.46,85.25-59.48,0-107.96-15.97-145.46-47.9s-59.91-74.85-67.24-128.76Z"/>
    <g>
      <path class="cls-3" d="M393.72,182.8v-40.11h10.67c3.98,0,6.58.19,7.8.57,1.95.62,3.56,1.94,4.83,3.97,1.27,2.02,1.9,4.63,1.9,7.83,0,2.9-.55,5.33-1.64,7.29-1.09,1.96-2.46,3.34-4.1,4.13-1.64.79-4.47,1.19-8.48,1.19h-4.35v15.13h-6.62ZM400.34,149.47v11.41h3.67c2.47,0,4.15-.17,5.03-.52s1.61-.97,2.18-1.88.85-2.02.85-3.33-.29-2.46-.88-3.37c-.59-.91-1.31-1.53-2.17-1.84-.86-.31-2.68-.47-5.46-.47h-3.24Z"/>
      <path class="cls-3" d="M424.39,182.8v-40.11h13.98c3.58,0,6.13.36,7.66,1.08,1.53.72,2.79,1.97,3.78,3.75.99,1.78,1.48,3.91,1.48,6.39,0,3.14-.75,5.66-2.26,7.58s-3.64,3.12-6.42,3.61c1.42,1.02,2.6,2.14,3.53,3.35.93,1.21,2.2,3.39,3.8,6.53l4,7.83h-7.92l-4.81-8.73c-1.73-3.16-2.9-5.13-3.52-5.92-.62-.79-1.28-1.34-1.97-1.64-.69-.3-1.81-.45-3.34-.45h-1.37v16.75h-6.62ZM431.01,159.65h4.93c3.01,0,4.93-.13,5.75-.4s1.49-.8,2-1.6c.51-.8.77-1.87.77-3.2s-.26-2.3-.77-3.08c-.51-.77-1.2-1.31-2.08-1.6-.62-.2-2.42-.3-5.39-.3h-5.2v10.18Z"/>
      <path class="cls-3" d="M457.34,182.8v-40.11h6.62v40.11h-6.62Z"/>
      <path class="cls-3" d="M470.23,182.8v-40.11h9.93l5.98,27.39,5.93-27.39h9.98v40.11h-6.18v-31.6l-6.56,31.6h-6.39l-6.51-31.6v31.6h-6.18Z"/>
      <path class="cls-3" d="M508.62,182.8v-40.11h24.41v6.79h-17.79v8.89h16.53v6.76h-16.53v10.89h18.39v6.79h-25.01Z"/>
      <path class="cls-3" d="M539.1,182.8v-40.11h13.98c3.58,0,6.13.36,7.66,1.08,1.53.72,2.79,1.97,3.78,3.75.99,1.78,1.48,3.91,1.48,6.39,0,3.14-.75,5.66-2.26,7.58s-3.64,3.12-6.42,3.61c1.42,1.02,2.6,2.14,3.53,3.35.93,1.21,2.2,3.39,3.8,6.53l4,7.83h-7.92l-4.81-8.73c-1.73-3.16-2.9-5.13-3.52-5.92-.62-.79-1.28-1.34-1.97-1.64-.69-.3-1.81-.45-3.34-.45h-1.37v16.75h-6.62ZM545.72,159.65h4.93c3.01,0,4.93-.13,5.75-.4s1.49-.8,2-1.6c.51-.8.77-1.87.77-3.2s-.26-2.3-.77-3.08c-.51-.77-1.2-1.31-2.08-1.6-.62-.2-2.42-.3-5.39-.3h-5.2v10.18Z"/>
      <path class="cls-3" d="M570.89,162.99c0-4.78.71-8.72,2.12-11.81,1.41-3.09,3.26-5.4,5.54-6.91s5.04-2.27,8.29-2.27c4.71,0,8.54,1.8,11.51,5.39,2.96,3.59,4.45,8.71,4.45,15.35s-1.57,11.96-4.71,15.73c-2.75,3.34-6.49,5.01-11.22,5.01s-8.52-1.65-11.27-4.95c-3.14-3.78-4.71-8.96-4.71-15.54ZM577.73,162.71c0,4.62.88,8.08,2.63,10.38,1.75,2.31,3.93,3.46,6.52,3.46s4.78-1.14,6.5-3.43c1.72-2.29,2.58-5.81,2.58-10.55s-.84-8.09-2.51-10.32c-1.67-2.23-3.86-3.34-6.56-3.34s-4.91,1.12-6.6,3.37c-1.7,2.24-2.55,5.72-2.55,10.43Z"/>
    </g>
    <g>
      <path class="cls-3" d="M973.39,164.49l6.49-.77c.73,5.13,3.12,7.69,7.17,7.69,2.01,0,3.58-.52,4.73-1.57,1.15-1.05,1.72-2.35,1.72-3.9,0-.91-.2-1.69-.6-2.32-.4-.64-1.01-1.16-1.83-1.57s-2.81-1.1-5.96-2.06c-2.83-.86-4.9-1.78-6.21-2.79-1.31-1-2.36-2.32-3.13-3.95-.78-1.63-1.16-3.39-1.16-5.26,0-2.19.5-4.16,1.49-5.91.99-1.75,2.37-3.07,4.12-3.96,1.75-.89,3.91-1.34,6.49-1.34,3.87,0,6.89,1.05,9.06,3.15,2.17,2.1,3.32,5.1,3.45,9l-6.65.36c-.29-2.15-.92-3.66-1.89-4.52-.97-.86-2.34-1.29-4.13-1.29s-3.17.37-4.13,1.12c-.97.75-1.45,1.67-1.45,2.78s.44,2.01,1.32,2.76c.88.75,2.89,1.57,6.05,2.46,3.34.97,5.75,1.98,7.23,3.05,1.49,1.07,2.62,2.44,3.4,4.13s1.18,3.73,1.18,6.14c0,3.48-1.07,6.41-3.22,8.78-2.14,2.37-5.5,3.56-10.06,3.56-8.06,0-12.55-4.59-13.46-13.76Z"/>
      <path class="cls-3" d="M1005.74,177.57v-40.11h24.41v6.79h-17.79v8.89h16.53v6.76h-16.53v10.89h18.39v6.79h-25.01Z"/>
      <path class="cls-3" d="M1051.68,162.85v-6.79h14.31v15.98c-1.44,1.7-3.48,3.16-6.13,4.38-2.65,1.22-5.3,1.83-7.96,1.83-3.25,0-6.11-.8-8.59-2.39-2.48-1.6-4.45-3.99-5.9-7.17-1.45-3.18-2.18-6.93-2.18-11.23s.73-8.19,2.2-11.33c1.47-3.14,3.38-5.48,5.72-7.03,2.34-1.55,5.15-2.33,8.41-2.33,3.92,0,7.06,1,9.43,3,2.36,2,3.88,4.93,4.56,8.8l-6.57,1.5c-.49-2.06-1.4-3.64-2.71-4.73-1.31-1.09-2.88-1.64-4.71-1.64-2.83,0-5.12,1.1-6.87,3.3-1.75,2.2-2.63,5.55-2.63,10.06,0,4.83.95,8.51,2.85,11.03,1.62,2.17,3.82,3.26,6.59,3.26,1.29,0,2.64-.3,4.04-.91s2.64-1.44,3.73-2.5v-5.07h-7.61Z"/>
      <path class="cls-3" d="M1072.07,137.45h6.62v21.73c0,3.38.08,5.57.25,6.59.29,1.77.99,3.14,2.1,4.1,1.11.97,2.56,1.45,4.37,1.45,1.54,0,2.79-.34,3.76-1.03.97-.68,1.63-1.63,1.99-2.85.36-1.21.53-3.82.53-7.81v-22.19h6.62v21.07c0,5.38-.29,9.27-.86,11.67-.57,2.4-1.87,4.34-3.89,5.83s-4.67,2.23-7.98,2.23-6.11-.62-8.03-1.85c-1.92-1.23-3.32-2.96-4.19-5.2-.87-2.23-1.3-6.35-1.3-12.35v-21.4Z"/>
      <path class="cls-3" d="M1105.37,177.57v-40.11h6.46l13.46,26.79v-26.79h6.18v40.11h-6.68l-13.24-26.16v26.16h-6.18Z"/>
      <path class="cls-3" d="M1138.25,137.45h12.11c3.06,0,5.37.34,6.93,1.03,1.56.68,2.99,1.84,4.31,3.46,1.31,1.62,2.34,3.73,3.09,6.32.75,2.59,1.12,5.81,1.12,9.66,0,3.47-.39,6.48-1.18,9.04-.78,2.56-1.78,4.59-2.98,6.09-1.2,1.5-2.66,2.62-4.36,3.38-1.7.76-3.9,1.14-6.57,1.14h-12.47v-40.11ZM1144.88,144.24v26.54h4.98c2.13,0,3.68-.2,4.64-.6.96-.4,1.74-1.01,2.35-1.82.61-.81,1.12-2.09,1.52-3.84s.6-4.05.6-6.92-.21-5.31-.62-7.03c-.41-1.71-1.05-3.06-1.92-4.05-.87-.98-1.92-1.63-3.16-1.94-.93-.24-2.73-.36-5.39-.36h-3.01Z"/>
      <path class="cls-3" d="M1170.1,157.76c0-4.78.71-8.72,2.12-11.81,1.41-3.09,3.26-5.4,5.54-6.91s5.04-2.27,8.29-2.27c4.71,0,8.54,1.8,11.51,5.39,2.96,3.59,4.45,8.71,4.45,15.35s-1.57,11.96-4.71,15.73c-2.75,3.34-6.49,5.01-11.22,5.01s-8.52-1.65-11.27-4.95c-3.14-3.78-4.71-8.96-4.71-15.54ZM1176.94,157.48c0,4.62.88,8.08,2.63,10.38,1.75,2.31,3.93,3.46,6.52,3.46s4.78-1.14,6.5-3.43c1.72-2.29,2.58-5.81,2.58-10.55s-.84-8.09-2.51-10.32c-1.67-2.23-3.86-3.34-6.56-3.34s-4.91,1.12-6.6,3.37c-1.7,2.24-2.55,5.72-2.55,10.43Z"/>
    </g>
    <g>
      <path class="cls-3" d="M2328.14,162.05l6.43,2.49c-1,4.49-2.67,7.77-5.01,9.84-2.33,2.07-5.21,3.11-8.62,3.11-4.29,0-7.76-1.65-10.43-4.95-3.06-3.81-4.6-8.96-4.6-15.43,0-6.84,1.54-12.19,4.63-16.06,2.68-3.36,6.29-5.04,10.82-5.04,3.69,0,6.77,1.26,9.26,3.78,1.77,1.79,3.07,4.44,3.89,7.96l-6.57,1.92c-.42-2.17-1.26-3.83-2.51-4.99-1.25-1.16-2.73-1.74-4.43-1.74-2.43,0-4.41,1.06-5.95,3.17-1.54,2.12-2.3,5.61-2.3,10.48s.75,8.65,2.24,10.78,3.44,3.2,5.83,3.2c1.75,0,3.27-.68,4.54-2.04,1.28-1.36,2.2-3.52,2.76-6.47Z"/>
      <path class="cls-3" d="M2340.18,136.68h6.62v21.73c0,3.38.08,5.57.25,6.59.29,1.77.99,3.14,2.1,4.1,1.11.97,2.56,1.45,4.37,1.45,1.54,0,2.79-.34,3.76-1.03s1.63-1.63,1.99-2.85c.36-1.21.54-3.82.54-7.81v-22.19h6.62v21.07c0,5.38-.29,9.27-.86,11.67-.57,2.4-1.87,4.34-3.89,5.83s-4.67,2.23-7.98,2.23-6.11-.62-8.03-1.85-3.32-2.96-4.19-5.2c-.87-2.23-1.3-6.35-1.3-12.35v-21.4Z"/>
      <path class="cls-3" d="M2403.09,176.8h-7.2l-2.88-9.08h-13.17l-2.72,9.08h-7.06l12.81-40.11h7.03l13.18,40.11ZM2390.87,160.93l-4.54-14.89-4.46,14.89h9Z"/>
      <path class="cls-3" d="M2406.59,176.8v-40.11h13.98c3.58,0,6.13.36,7.66,1.08,1.53.72,2.79,1.97,3.78,3.75.99,1.78,1.48,3.91,1.48,6.39,0,3.14-.75,5.66-2.26,7.58-1.5,1.92-3.64,3.12-6.42,3.61,1.42,1.02,2.6,2.14,3.53,3.35.93,1.21,2.2,3.39,3.8,6.53l4,7.83h-7.92l-4.81-8.73c-1.73-3.16-2.91-5.13-3.53-5.92-.62-.79-1.28-1.34-1.97-1.64-.69-.3-1.81-.45-3.34-.45h-1.37v16.75h-6.62ZM2413.21,153.65h4.93c3.01,0,4.92-.13,5.75-.4s1.49-.8,2-1.6c.51-.8.77-1.87.77-3.2s-.26-2.3-.77-3.08c-.51-.77-1.2-1.31-2.08-1.6-.62-.2-2.42-.3-5.39-.3h-5.2v10.18Z"/>
      <path class="cls-3" d="M2446.98,176.8v-33.33h-9.77v-6.79h26.13v6.79h-9.74v33.33h-6.62Z"/>
      <path class="cls-3" d="M2466.29,156.99c0-4.78.71-8.72,2.12-11.81,1.41-3.09,3.26-5.4,5.54-6.91s5.04-2.27,8.29-2.27c4.71,0,8.54,1.8,11.51,5.39,2.96,3.59,4.45,8.71,4.45,15.35s-1.57,11.96-4.71,15.73c-2.75,3.34-6.49,5.01-11.22,5.01s-8.52-1.65-11.27-4.95c-3.14-3.78-4.71-8.96-4.71-15.54ZM2473.13,156.71c0,4.62.88,8.08,2.63,10.38s3.93,3.46,6.52,3.46,4.78-1.14,6.5-3.43c1.72-2.29,2.58-5.81,2.58-10.55s-.84-8.09-2.51-10.32c-1.67-2.23-3.86-3.34-6.56-3.34s-4.91,1.12-6.6,3.37c-1.7,2.24-2.55,5.72-2.55,10.43Z"/>
    </g>
    <g>
      <path class="cls-3" d="M2988.77,170.27c1.62,1.4,3.39,2.54,5.31,3.39l-2.44,5.72c-.99-.37-1.95-.86-2.9-1.48-.22-.13-1.71-1.32-4.46-3.58-2.17,1.15-4.65,1.72-7.44,1.72-4.74,0-8.58-1.77-11.51-5.32-2.93-3.55-4.39-8.69-4.39-15.42s1.47-11.89,4.42-15.43c2.95-3.54,6.81-5.31,11.6-5.31s8.56,1.77,11.49,5.32c2.93,3.55,4.4,8.69,4.4,15.42,0,3.27-.33,6.07-.98,8.43s-1.68,4.53-3.1,6.54ZM2983.44,165.7c1.71-2.37,2.57-5.83,2.57-10.37s-.85-8.19-2.55-10.45c-1.7-2.26-3.88-3.39-6.55-3.39s-4.86,1.13-6.56,3.39c-1.71,2.26-2.56,5.74-2.56,10.43s.85,8.29,2.56,10.58c1.71,2.29,3.83,3.43,6.36,3.43.95,0,1.85-.19,2.71-.57-1.39-1.09-2.75-1.93-4.1-2.52l1.86-4.62c2.19.91,4.28,2.28,6.27,4.1Z"/>
      <path class="cls-3" d="M2997.99,135.24h6.62v21.73c0,3.38.08,5.57.25,6.59.29,1.77.99,3.14,2.1,4.1,1.11.97,2.56,1.45,4.37,1.45,1.54,0,2.79-.34,3.76-1.03s1.63-1.63,1.99-2.85c.36-1.21.54-3.82.54-7.81v-22.19h6.62v21.07c0,5.38-.29,9.27-.86,11.67-.57,2.4-1.87,4.34-3.89,5.83s-4.67,2.23-7.98,2.23-6.11-.62-8.03-1.85-3.32-2.96-4.19-5.2c-.87-2.23-1.3-6.35-1.3-12.35v-21.4Z"/>
      <path class="cls-3" d="M3031.02,175.36v-40.11h6.62v40.11h-6.62Z"/>
      <path class="cls-3" d="M3044.07,175.36v-40.11h6.46l13.46,26.79v-26.79h6.18v40.11h-6.68l-13.24-26.16v26.16h-6.18Z"/>
      <path class="cls-3" d="M3084.57,175.36v-33.33h-9.77v-6.79h26.13v6.79h-9.74v33.33h-6.62Z"/>
      <path class="cls-3" d="M3103.89,155.55c0-4.78.71-8.72,2.12-11.81,1.41-3.09,3.26-5.4,5.54-6.91s5.04-2.27,8.29-2.27c4.71,0,8.54,1.8,11.51,5.39,2.96,3.59,4.45,8.71,4.45,15.35s-1.57,11.96-4.71,15.73c-2.75,3.34-6.49,5.01-11.22,5.01s-8.52-1.65-11.27-4.95c-3.14-3.78-4.71-8.96-4.71-15.54ZM3110.73,155.27c0,4.62.88,8.08,2.63,10.38s3.93,3.46,6.52,3.46,4.78-1.14,6.5-3.43c1.72-2.29,2.58-5.81,2.58-10.55s-.84-8.09-2.51-10.32c-1.67-2.23-3.86-3.34-6.56-3.34s-4.91,1.12-6.6,3.37c-1.7,2.24-2.55,5.72-2.55,10.43Z"/>
    </g>
    <g>
      <path class="cls-3" d="M1707.27,173.66v-33.33h-9.77v-6.79h26.13v6.79h-9.74v33.33h-6.62Z"/>
      <path class="cls-3" d="M1727.96,173.66v-40.11h24.41v6.79h-17.79v8.89h16.53v6.76h-16.53v10.89h18.39v6.79h-25.01Z"/>
      <path class="cls-3" d="M1758.61,173.66v-40.11h13.98c3.58,0,6.13.36,7.66,1.08,1.53.72,2.79,1.97,3.78,3.75.99,1.78,1.48,3.91,1.48,6.39,0,3.14-.75,5.66-2.26,7.58s-3.64,3.12-6.42,3.61c1.42,1.02,2.6,2.14,3.53,3.35.93,1.21,2.2,3.39,3.8,6.53l4,7.83h-7.92l-4.81-8.73c-1.73-3.16-2.9-5.13-3.52-5.92-.62-.79-1.28-1.34-1.97-1.64-.69-.3-1.81-.45-3.34-.45h-1.37v16.75h-6.62ZM1765.23,150.51h4.93c3.01,0,4.93-.13,5.75-.4s1.49-.8,2-1.6c.51-.8.77-1.87.77-3.2s-.26-2.3-.77-3.08c-.51-.77-1.2-1.31-2.08-1.6-.62-.2-2.42-.3-5.39-.3h-5.2v10.18Z"/>
      <path class="cls-3" d="M1812.81,158.91l6.43,2.49c-1,4.49-2.67,7.77-5.01,9.84-2.34,2.07-5.21,3.11-8.62,3.11-4.29,0-7.76-1.65-10.43-4.95-3.06-3.81-4.6-8.96-4.6-15.43,0-6.84,1.54-12.19,4.63-16.06,2.68-3.36,6.29-5.04,10.82-5.04,3.69,0,6.77,1.26,9.26,3.78,1.77,1.79,3.07,4.44,3.89,7.96l-6.57,1.92c-.42-2.17-1.26-3.83-2.51-4.99-1.25-1.16-2.73-1.74-4.43-1.74-2.43,0-4.41,1.06-5.95,3.17-1.53,2.12-2.3,5.61-2.3,10.48s.75,8.65,2.24,10.78,3.44,3.2,5.83,3.2c1.75,0,3.27-.68,4.54-2.04,1.28-1.36,2.2-3.52,2.76-6.47Z"/>
      <path class="cls-3" d="M1824.94,173.66v-40.11h24.41v6.79h-17.79v8.89h16.53v6.76h-16.53v10.89h18.39v6.79h-25.01Z"/>
      <path class="cls-3" d="M1855.41,173.66v-40.11h13.98c3.58,0,6.13.36,7.66,1.08,1.53.72,2.79,1.97,3.78,3.75.99,1.78,1.48,3.91,1.48,6.39,0,3.14-.75,5.66-2.26,7.58s-3.64,3.12-6.42,3.61c1.42,1.02,2.6,2.14,3.53,3.35.93,1.21,2.2,3.39,3.8,6.53l4,7.83h-7.92l-4.81-8.73c-1.73-3.16-2.9-5.13-3.52-5.92-.62-.79-1.28-1.34-1.97-1.64-.69-.3-1.81-.45-3.34-.45h-1.37v16.75h-6.62ZM1862.04,150.51h4.93c3.01,0,4.93-.13,5.75-.4s1.49-.8,2-1.6c.51-.8.77-1.87.77-3.2s-.26-2.3-.77-3.08c-.51-.77-1.2-1.31-2.08-1.6-.62-.2-2.42-.3-5.39-.3h-5.2v10.18Z"/>
      <path class="cls-3" d="M1887.21,153.85c0-4.78.71-8.72,2.12-11.81,1.41-3.09,3.26-5.4,5.54-6.91s5.04-2.27,8.29-2.27c4.71,0,8.54,1.8,11.51,5.39,2.96,3.59,4.45,8.71,4.45,15.35s-1.57,11.96-4.71,15.73c-2.75,3.34-6.49,5.01-11.22,5.01s-8.52-1.65-11.27-4.95c-3.14-3.78-4.71-8.96-4.71-15.54ZM1894.05,153.57c0,4.62.88,8.08,2.63,10.38,1.75,2.31,3.93,3.46,6.52,3.46s4.78-1.14,6.5-3.43c1.72-2.29,2.58-5.81,2.58-10.55s-.84-8.09-2.51-10.32c-1.67-2.23-3.86-3.34-6.56-3.34s-4.91,1.12-6.6,3.37c-1.7,2.24-2.55,5.72-2.55,10.43Z"/>
    </g>
    <g>
      <path class="cls-3" d="M55.51,1029.74v-30.06h16.9v5.09h-11.94v7.12h10.34v5.09h-10.34v12.78h-4.96Z"/>
      <path class="cls-3" d="M88.2,1029.74v-3.26c-.66,1.18-1.52,2.1-2.58,2.77-1.06.67-2.18,1-3.34,1s-2.22-.31-3.15-.92c-.93-.62-1.62-1.49-2.08-2.63-.46-1.14-.69-2.78-.69-4.95v-13.79h4.74v10.01c0,2.86.07,4.67.21,5.44.14.77.46,1.37.95,1.79.49.42,1.08.64,1.78.64.79,0,1.52-.28,2.19-.83.67-.55,1.11-1.26,1.32-2.13.21-.87.32-2.78.32-5.73v-9.19h4.74v21.78h-4.41Z"/>
      <path class="cls-3" d="M113.77,1029.74h-4.74v-11.13c0-2.23-.09-3.72-.27-4.46-.18-.74-.51-1.31-.99-1.7-.49-.4-1.04-.6-1.65-.6-.79,0-1.51.26-2.15.77s-1.09,1.22-1.35,2.12-.39,2.61-.39,5.11v9.88h-4.74v-21.78h4.39v3.18c.78-1.23,1.66-2.15,2.64-2.77s2.06-.92,3.25-.92c1.38,0,2.55.36,3.5,1.08s1.61,1.64,1.97,2.77c.36,1.13.54,2.76.54,4.9v13.55Z"/>
      <path class="cls-3" d="M134.85,1029.74h-4.39v-3.2c-.72,1.23-1.58,2.16-2.56,2.78s-2,.93-3.04.93c-2,0-3.74-1-5.22-2.99-1.48-1.99-2.23-4.84-2.23-8.54s.72-6.54,2.17-8.43c1.45-1.9,3.23-2.85,5.34-2.85,1,0,1.93.25,2.79.76.87.51,1.66,1.26,2.39,2.28v-10.81h4.74v30.06ZM122.26,1018.37c0,1.98.17,3.45.5,4.41.33.97.81,1.69,1.43,2.18.62.49,1.32.73,2.1.73,1.04,0,1.94-.56,2.7-1.69.76-1.12,1.15-2.82,1.15-5.08,0-2.51-.37-4.32-1.12-5.42-.74-1.1-1.69-1.66-2.83-1.66s-2.02.54-2.78,1.62c-.76,1.08-1.15,2.71-1.15,4.9Z"/>
      <path class="cls-3" d="M143.06,1014.58l-4.29-.94c.52-2.2,1.38-3.78,2.57-4.75s2.92-1.45,5.16-1.45c2,0,3.52.28,4.57.84s1.8,1.32,2.26,2.29c.45.96.68,2.72.68,5.27l-.04,6.73c0,1.89.08,3.29.23,4.22s.43,1.91.84,2.95h-4.68l-.62-2.38c-.81.96-1.67,1.68-2.59,2.16s-1.9.73-2.94.73c-1.74,0-3.16-.58-4.27-1.76-1.11-1.17-1.66-2.73-1.66-4.67,0-1.23.23-2.31.68-3.22.45-.92,1.09-1.65,1.91-2.2.82-.55,2.13-1.03,3.94-1.46,2.19-.51,3.71-.98,4.57-1.42,0-1.21-.09-2-.26-2.38s-.49-.69-.94-.93c-.46-.24-1.1-.36-1.94-.36s-1.51.19-2,.57-.88,1.1-1.18,2.15ZM149.37,1019.28c-.6.25-1.54.53-2.81.86-1.46.38-2.42.81-2.87,1.28s-.68,1.07-.68,1.81c0,.84.25,1.54.75,2.11.5.57,1.12.85,1.88.85.67,0,1.33-.23,1.99-.69s1.11-1,1.36-1.64c.25-.63.38-1.78.38-3.44v-1.15Z"/>
      <path class="cls-3" d="M158.31,1007.96h4.35v2.97c.78-1.16,1.63-2.03,2.56-2.61s1.93-.87,3.01-.87c1.15,0,2.14.29,2.98.86s1.53,1.44,2.06,2.6c.79-1.16,1.64-2.03,2.55-2.6s1.88-.86,2.9-.86c1.22,0,2.27.29,3.15.87s1.55,1.41,2.01,2.49c.46,1.08.69,2.74.69,4.99v13.94h-4.74v-12.46c0-2.18-.19-3.62-.57-4.34s-1.03-1.08-1.93-1.08c-1.05,0-1.9.5-2.54,1.51s-.96,2.97-.96,5.9v10.47h-4.74v-11.95c0-2.37-.13-3.89-.39-4.58-.34-.9-1.03-1.35-2.07-1.35-.7,0-1.34.23-1.93.7s-1.01,1.15-1.27,2.04c-.26.9-.39,2.41-.39,4.55v10.59h-4.74v-21.78Z"/>
      <path class="cls-3" d="M199.68,1022.83l4.7.96c-.63,2.19-1.61,3.81-2.94,4.87-1.33,1.06-2.94,1.59-4.85,1.59-2.64,0-4.68-.88-6.12-2.65-1.7-2.05-2.55-4.93-2.55-8.63s.85-6.56,2.56-8.75c1.45-1.85,3.32-2.77,5.62-2.77,2.56,0,4.56.94,6.01,2.83,1.67,2.16,2.5,5.35,2.5,9.57l-.02.66h-11.83c.03,1.73.41,3.07,1.16,4.01.75.95,1.65,1.42,2.71,1.42,1.52,0,2.54-1.04,3.04-3.12ZM199.92,1016.98c-.04-1.7-.4-2.98-1.09-3.84s-1.5-1.29-2.44-1.29c-1,0-1.84.45-2.52,1.34-.7.91-1.04,2.17-1.03,3.79h7.08Z"/>
      <path class="cls-3" d="M224.7,1029.74h-4.74v-11.13c0-2.23-.09-3.72-.27-4.46-.18-.74-.51-1.31-.99-1.7-.49-.4-1.04-.6-1.65-.6-.79,0-1.51.26-2.15.77s-1.09,1.22-1.35,2.12-.39,2.61-.39,5.11v9.88h-4.74v-21.78h4.39v3.18c.78-1.23,1.66-2.15,2.64-2.77s2.06-.92,3.25-.92c1.38,0,2.55.36,3.5,1.08s1.61,1.64,1.97,2.77c.36,1.13.54,2.76.54,4.9v13.55Z"/>
      <path class="cls-3" d="M237.66,1007.96v4.59h-3.22v8.79c0,1.9.05,3.01.14,3.31.19.55.58.82,1.17.82.44,0,1.07-.18,1.89-.55l.41,4.47c-1.09.57-2.33.86-3.71.86-1.2,0-2.17-.29-2.89-.86s-1.21-1.4-1.46-2.48c-.19-.79-.29-2.41-.29-4.85v-9.51h-2.17v-4.59h2.17v-4.33l4.74-3.36v7.69h3.22Z"/>
      <path class="cls-3" d="M244.49,1014.58l-4.29-.94c.52-2.2,1.38-3.78,2.57-4.75s2.92-1.45,5.16-1.45c2,0,3.52.28,4.57.84s1.8,1.32,2.26,2.29c.45.96.68,2.72.68,5.27l-.04,6.73c0,1.89.08,3.29.23,4.22s.43,1.91.84,2.95h-4.68l-.62-2.38c-.81.96-1.67,1.68-2.59,2.16s-1.9.73-2.94.73c-1.74,0-3.16-.58-4.27-1.76-1.11-1.17-1.66-2.73-1.66-4.67,0-1.23.23-2.31.68-3.22.45-.92,1.09-1.65,1.91-2.2.82-.55,2.13-1.03,3.94-1.46,2.19-.51,3.71-.98,4.57-1.42,0-1.21-.09-2-.26-2.38s-.49-.69-.94-.93c-.46-.24-1.1-.36-1.94-.36s-1.51.19-2,.57-.88,1.1-1.18,2.15ZM250.8,1019.28c-.6.25-1.54.53-2.81.86-1.46.38-2.42.81-2.87,1.28s-.68,1.07-.68,1.81c0,.84.25,1.54.75,2.11.5.57,1.12.85,1.88.85.67,0,1.33-.23,1.99-.69s1.11-1,1.36-1.64c.25-.63.38-1.78.38-3.44v-1.15Z"/>
      <path class="cls-3" d="M264.65,1029.74h-4.74v-21.78h4.39v3.1c.75-1.45,1.43-2.41,2.02-2.89s1.28-.72,2.06-.72c1.08,0,2.11.36,3.1,1.09l-1.48,5.02c-.78-.63-1.52-.94-2.21-.94-.66,0-1.23.24-1.73.73s-.86,1.37-1.08,2.64c-.22,1.27-.33,3.61-.33,7.02v6.73Z"/>
    </g>
    <g>
      <path class="cls-3" d="M97.11,1058.36h5.05l4.25,15.47,4.17-15.47h4.9l-6.3,20.96-1.21,4.08c-.53,1.53-1.06,2.65-1.59,3.36-.53.71-1.2,1.26-2.01,1.64-.81.38-1.82.57-3.01.57-.92,0-1.81-.12-2.69-.35l-.41-4.51c.74.18,1.4.27,1.99.27.9,0,1.64-.3,2.23-.9.58-.6,1.06-1.69,1.43-3.27l-6.79-21.85Z"/>
      <path class="cls-3" d="M131.63,1064.98l-4.29-.94c.52-2.2,1.38-3.78,2.57-4.75s2.92-1.45,5.16-1.45c2,0,3.52.28,4.57.84s1.8,1.32,2.26,2.29c.45.96.68,2.72.68,5.27l-.04,6.73c0,1.89.08,3.29.23,4.22s.43,1.91.84,2.95h-4.68l-.62-2.38c-.81.96-1.67,1.68-2.59,2.16s-1.9.73-2.94.73c-1.74,0-3.16-.58-4.27-1.76-1.11-1.17-1.66-2.73-1.66-4.67,0-1.23.23-2.31.68-3.22.45-.92,1.09-1.65,1.91-2.2.82-.55,2.13-1.03,3.94-1.46,2.19-.51,3.71-.98,4.57-1.42,0-1.21-.09-2-.26-2.38s-.49-.69-.94-.93c-.46-.24-1.1-.36-1.94-.36s-1.51.19-2,.57-.88,1.1-1.18,2.15ZM137.94,1069.68c-.6.25-1.54.53-2.81.86-1.46.38-2.42.81-2.87,1.28s-.68,1.07-.68,1.81c0,.84.25,1.54.75,2.11.5.57,1.12.85,1.88.85.67,0,1.33-.23,1.99-.69s1.11-1,1.36-1.64c.25-.63.38-1.78.38-3.44v-1.15Z"/>
      <path class="cls-3" d="M147.11,1058.36h4.39v3.2c.6-1.15,1.4-2.05,2.38-2.72s2.05-.99,3.18-.99c2.04,0,3.8.97,5.27,2.92,1.47,1.95,2.21,4.7,2.21,8.28,0,3.75-.74,6.63-2.21,8.62-1.48,1.99-3.23,2.99-5.27,2.99-.94,0-1.82-.23-2.64-.69s-1.67-1.29-2.57-2.49v10.95h-4.74v-30.06ZM151.78,1068.88c0,2.47.4,4.29,1.2,5.45.8,1.17,1.76,1.75,2.9,1.75s1.99-.54,2.72-1.61c.74-1.08,1.1-2.83,1.1-5.28s-.38-4.03-1.14-5.13c-.76-1.1-1.68-1.66-2.77-1.66-1.15,0-2.1.54-2.87,1.61-.76,1.08-1.15,2.7-1.15,4.86Z"/>
      <path class="cls-3" d="M168.3,1080.14v-30.06h4.74v30.06h-4.74Z"/>
      <path class="cls-3" d="M177.87,1055.4v-5.33h4.74v5.33h-4.74ZM177.87,1080.14v-21.78h4.74v21.78h-4.74Z"/>
      <path class="cls-3" d="M203.08,1064.78l-4.66,1.03c-.34-2.28-1.42-3.42-3.24-3.42-1.17,0-2.11.49-2.83,1.48-.71.99-1.07,2.65-1.07,5,0,2.59.36,4.42,1.07,5.49.71,1.07,1.67,1.6,2.86,1.6.89,0,1.62-.3,2.2-.91s.99-1.69,1.23-3.23l4.66.96c-.96,5.25-3.71,7.88-8.26,7.88-2.91,0-5.07-1.11-6.48-3.33s-2.11-4.89-2.11-8.01c0-3.74.8-6.58,2.39-8.54,1.59-1.95,3.69-2.93,6.27-2.93,2.09,0,3.8.55,5.12,1.66,1.32,1.11,2.27,2.86,2.84,5.27Z"/>
      <path class="cls-3" d="M210.17,1064.98l-4.29-.94c.52-2.2,1.38-3.78,2.57-4.75s2.92-1.45,5.16-1.45c2,0,3.52.28,4.57.84s1.8,1.32,2.26,2.29c.45.96.68,2.72.68,5.27l-.04,6.73c0,1.89.08,3.29.23,4.22s.43,1.91.84,2.95h-4.68l-.62-2.38c-.81.96-1.67,1.68-2.59,2.16s-1.9.73-2.94.73c-1.74,0-3.16-.58-4.27-1.76-1.11-1.17-1.66-2.73-1.66-4.67,0-1.23.23-2.31.68-3.22.45-.92,1.09-1.65,1.91-2.2.82-.55,2.13-1.03,3.94-1.46,2.19-.51,3.71-.98,4.57-1.42,0-1.21-.09-2-.26-2.38s-.49-.69-.94-.93c-.46-.24-1.1-.36-1.94-.36s-1.51.19-2,.57-.88,1.1-1.18,2.15ZM216.49,1069.68c-.6.25-1.54.53-2.81.86-1.46.38-2.42.81-2.87,1.28s-.68,1.07-.68,1.81c0,.84.25,1.54.75,2.11.5.57,1.12.85,1.88.85.67,0,1.33-.23,1.99-.69s1.11-1,1.36-1.64c.25-.63.38-1.78.38-3.44v-1.15Z"/>
      <path class="cls-3" d="M230.33,1080.14h-4.74v-21.78h4.39v3.1c.75-1.45,1.43-2.41,2.02-2.89s1.28-.72,2.06-.72c1.08,0,2.11.36,3.1,1.09l-1.48,5.02c-.78-.63-1.52-.94-2.21-.94-.66,0-1.23.24-1.73.73s-.86,1.37-1.08,2.64c-.22,1.27-.33,3.61-.33,7.02v6.73Z"/>
    </g>
    <g>
      <path class="cls-3" d="M62.03,1108.63h4.39v3.2c.6-1.15,1.4-2.06,2.38-2.72.99-.66,2.05-1,3.19-1,2.04,0,3.8.97,5.27,2.92,1.47,1.95,2.21,4.71,2.21,8.28,0,3.76-.74,6.63-2.22,8.62-1.48,1.99-3.24,2.99-5.27,2.99-.94,0-1.82-.23-2.64-.69-.81-.46-1.67-1.29-2.58-2.49v10.96h-4.74v-30.08ZM66.7,1119.15c0,2.47.4,4.29,1.2,5.45s1.76,1.75,2.9,1.75,1.99-.54,2.72-1.62c.74-1.08,1.11-2.84,1.11-5.28s-.38-4.03-1.14-5.13c-.76-1.1-1.68-1.66-2.77-1.66-1.15,0-2.1.54-2.87,1.62-.76,1.08-1.15,2.7-1.15,4.87Z"/>
      <path class="cls-3" d="M87.76,1130.42h-4.74v-21.79h4.39v3.1c.75-1.45,1.43-2.41,2.02-2.89s1.28-.72,2.06-.72c1.08,0,2.11.36,3.1,1.09l-1.48,5.03c-.78-.63-1.52-.94-2.22-.94-.66,0-1.23.24-1.73.73-.5.49-.86,1.37-1.08,2.64-.22,1.27-.33,3.62-.33,7.03v6.74Z"/>
      <path class="cls-3" d="M95.52,1119.21c0-2.14.42-4.08,1.27-5.84.85-1.75,1.96-3.07,3.32-3.95,1.37-.88,2.91-1.32,4.62-1.32,2.87,0,5.13,1.13,6.77,3.38,1.64,2.25,2.46,4.89,2.46,7.9,0,2.25-.43,4.28-1.28,6.09-.86,1.81-1.98,3.17-3.37,4.08-1.39.91-2.91,1.37-4.57,1.37-2.65,0-4.86-1.01-6.61-3.04-1.75-2.03-2.63-4.92-2.63-8.67ZM100.36,1119.52c0,2.21.43,3.88,1.3,5.01s1.91,1.7,3.13,1.7,2.21-.57,3.06-1.71c.85-1.14,1.28-2.82,1.28-5.04s-.43-3.82-1.3-4.96c-.86-1.14-1.9-1.71-3.11-1.71s-2.22.57-3.07,1.71c-.86,1.14-1.29,2.81-1.29,5Z"/>
      <path class="cls-3" d="M117.53,1108.63h4.39v3.2c.6-1.15,1.4-2.06,2.38-2.72.99-.66,2.05-1,3.19-1,2.04,0,3.8.97,5.27,2.92,1.47,1.95,2.21,4.71,2.21,8.28,0,3.76-.74,6.63-2.22,8.62-1.48,1.99-3.24,2.99-5.27,2.99-.94,0-1.82-.23-2.64-.69-.81-.46-1.67-1.29-2.58-2.49v10.96h-4.74v-30.08ZM122.21,1119.15c0,2.47.4,4.29,1.2,5.45s1.76,1.75,2.9,1.75,1.99-.54,2.72-1.62c.74-1.08,1.11-2.84,1.11-5.28s-.38-4.03-1.14-5.13c-.76-1.1-1.68-1.66-2.77-1.66-1.15,0-2.1.54-2.87,1.62-.76,1.08-1.15,2.7-1.15,4.87Z"/>
      <path class="cls-3" d="M138.65,1105.67v-5.33h4.74v5.33h-4.74ZM138.65,1130.42v-21.79h4.74v21.79h-4.74Z"/>
      <path class="cls-3" d="M158.61,1123.5l4.7.96c-.63,2.19-1.61,3.81-2.94,4.87s-2.94,1.59-4.85,1.59c-2.64,0-4.68-.88-6.12-2.65-1.7-2.06-2.55-4.93-2.55-8.63s.85-6.56,2.56-8.76c1.45-1.85,3.32-2.78,5.62-2.78,2.56,0,4.56.95,6.01,2.84,1.67,2.17,2.5,5.36,2.5,9.58l-.02.66h-11.84c.03,1.73.42,3.07,1.16,4.02.75.95,1.65,1.42,2.71,1.42,1.52,0,2.54-1.04,3.05-3.12ZM158.86,1117.65c-.04-1.7-.4-2.98-1.09-3.84-.68-.86-1.5-1.29-2.44-1.29-1,0-1.84.45-2.52,1.34-.7.91-1.04,2.17-1.03,3.79h7.08Z"/>
      <path class="cls-3" d="M183.77,1130.42h-4.39v-3.2c-.73,1.23-1.58,2.16-2.56,2.78-.98.62-2,.93-3.04.93-2,0-3.74-1-5.22-2.99s-2.23-4.84-2.23-8.54.72-6.54,2.17-8.44,3.23-2.85,5.35-2.85c1,0,1.93.25,2.8.76.87.51,1.66,1.27,2.39,2.28v-10.81h4.74v30.08ZM171.17,1119.05c0,1.98.17,3.45.5,4.41.33.97.81,1.69,1.43,2.18.62.49,1.32.73,2.1.73,1.04,0,1.94-.56,2.7-1.69.76-1.12,1.15-2.82,1.15-5.08,0-2.51-.37-4.32-1.12-5.42-.74-1.1-1.69-1.66-2.83-1.66s-2.02.54-2.78,1.63c-.76,1.08-1.15,2.72-1.15,4.9Z"/>
      <path class="cls-3" d="M191.98,1115.25l-4.29-.94c.52-2.2,1.38-3.79,2.58-4.75,1.2-.96,2.92-1.45,5.16-1.45,2,0,3.52.28,4.58.84s1.81,1.32,2.26,2.29c.45.97.68,2.72.68,5.27l-.04,6.74c0,1.89.07,3.3.23,4.22.15.92.43,1.91.84,2.95h-4.68l-.62-2.38c-.81.96-1.67,1.68-2.6,2.17s-1.91.73-2.94.73c-1.74,0-3.16-.59-4.27-1.76-1.11-1.17-1.66-2.73-1.66-4.67,0-1.23.23-2.31.68-3.23.45-.92,1.09-1.65,1.91-2.2.82-.55,2.13-1.03,3.94-1.46,2.19-.51,3.71-.98,4.58-1.42,0-1.21-.09-2-.26-2.38-.17-.38-.49-.69-.94-.93-.46-.24-1.1-.36-1.94-.36s-1.52.19-2,.57c-.49.38-.88,1.1-1.18,2.15ZM198.3,1119.95c-.6.25-1.54.54-2.81.86-1.46.38-2.42.81-2.87,1.28-.45.47-.68,1.07-.68,1.81,0,.84.25,1.54.75,2.11.5.57,1.12.85,1.88.85.67,0,1.33-.23,1.99-.69.66-.46,1.11-1,1.36-1.64.25-.63.38-1.78.38-3.44v-1.15Z"/>
      <path class="cls-3" d="M223.99,1130.42h-4.39v-3.2c-.73,1.23-1.58,2.16-2.56,2.78-.98.62-2,.93-3.04.93-2,0-3.74-1-5.22-2.99s-2.23-4.84-2.23-8.54.72-6.54,2.17-8.44,3.23-2.85,5.35-2.85c1,0,1.93.25,2.8.76.87.51,1.66,1.27,2.39,2.28v-10.81h4.74v30.08ZM211.39,1119.05c0,1.98.17,3.45.5,4.41.33.97.81,1.69,1.43,2.18.62.49,1.32.73,2.1.73,1.04,0,1.94-.56,2.7-1.69.76-1.12,1.15-2.82,1.15-5.08,0-2.51-.37-4.32-1.12-5.42-.74-1.1-1.69-1.66-2.83-1.66s-2.02.54-2.78,1.63c-.76,1.08-1.15,2.72-1.15,4.9Z"/>
      <path class="cls-3" d="M239.05,1123.5l4.7.96c-.63,2.19-1.61,3.81-2.94,4.87s-2.94,1.59-4.85,1.59c-2.64,0-4.68-.88-6.12-2.65-1.7-2.06-2.55-4.93-2.55-8.63s.85-6.56,2.56-8.76c1.45-1.85,3.32-2.78,5.62-2.78,2.56,0,4.56.95,6.01,2.84,1.67,2.17,2.5,5.36,2.5,9.58l-.02.66h-11.84c.03,1.73.42,3.07,1.16,4.02.75.95,1.65,1.42,2.71,1.42,1.52,0,2.54-1.04,3.05-3.12ZM239.29,1117.65c-.04-1.7-.4-2.98-1.09-3.84-.68-.86-1.5-1.29-2.44-1.29-1,0-1.84.45-2.52,1.34-.7.91-1.04,2.17-1.03,3.79h7.08Z"/>
      <path class="cls-3" d="M246.17,1124.22l4.74-.88c.41,2.28,1.68,3.43,3.82,3.43,1.14,0,1.98-.22,2.54-.66.56-.44.84-1.01.84-1.7,0-.48-.12-.86-.37-1.13-.26-.27-.77-.51-1.54-.72-3.88-1.03-6.35-2.02-7.4-2.95-1.31-1.17-1.97-2.76-1.97-4.79s.64-3.65,1.93-4.87c1.29-1.22,3.15-1.83,5.6-1.83s4.12.46,5.33,1.36c1.22.91,2.07,2.38,2.56,4.4l-4.45,1.01c-.4-1.75-1.52-2.63-3.37-2.63-1.16,0-1.99.17-2.48.5-.49.34-.74.77-.74,1.31,0,.48.23.88.68,1.19.45.33,1.85.83,4.2,1.49,2.64.75,4.43,1.65,5.38,2.7.93,1.05,1.4,2.46,1.4,4.21,0,2.11-.72,3.85-2.16,5.21-1.44,1.37-3.44,2.05-5.98,2.05-2.31,0-4.2-.57-5.66-1.71s-2.43-2.81-2.89-5Z"/>
    </g>
    <g>
      <path class="cls-3" d="M72,397.05v-30.06h10.48c2.68,0,4.59.27,5.74.81s2.09,1.48,2.83,2.81,1.11,2.93,1.11,4.79c0,2.35-.56,4.25-1.69,5.68s-2.73,2.34-4.81,2.71c1.07.77,1.95,1.6,2.65,2.51s1.65,2.54,2.85,4.89l2.99,5.87h-5.94l-3.6-6.54c-1.3-2.37-2.18-3.85-2.64-4.44s-.96-1-1.48-1.23-1.35-.34-2.5-.34h-1.03v12.55h-4.96ZM76.97,379.7h3.69c2.26,0,3.69-.1,4.31-.3s1.11-.6,1.5-1.2.57-1.4.57-2.4-.19-1.73-.57-2.31-.9-.98-1.56-1.2c-.46-.15-1.81-.23-4.04-.23h-3.9v7.63Z"/>
      <path class="cls-3" d="M107.19,390.14l4.7.96c-.63,2.19-1.61,3.81-2.94,4.87-1.33,1.06-2.94,1.59-4.85,1.59-2.64,0-4.68-.88-6.12-2.65-1.7-2.05-2.55-4.93-2.55-8.63s.85-6.56,2.56-8.75c1.45-1.85,3.32-2.77,5.62-2.77,2.56,0,4.56.94,6.01,2.83,1.67,2.16,2.5,5.35,2.5,9.57l-.02.66h-11.83c.03,1.73.41,3.07,1.16,4.01.75.95,1.65,1.42,2.71,1.42,1.52,0,2.54-1.04,3.04-3.12ZM107.44,384.29c-.04-1.7-.4-2.98-1.09-3.84s-1.5-1.29-2.44-1.29c-1,0-1.84.45-2.52,1.34-.7.91-1.04,2.17-1.03,3.79h7.08Z"/>
      <path class="cls-3" d="M131.56,381.69l-4.66,1.03c-.34-2.28-1.42-3.42-3.24-3.42-1.17,0-2.11.49-2.83,1.48-.71.99-1.07,2.65-1.07,5,0,2.59.36,4.42,1.07,5.49.71,1.07,1.67,1.6,2.86,1.6.89,0,1.62-.3,2.2-.91s.99-1.69,1.23-3.23l4.66.96c-.96,5.25-3.71,7.88-8.26,7.88-2.91,0-5.07-1.11-6.48-3.33s-2.11-4.89-2.11-8.01c0-3.74.8-6.58,2.39-8.54,1.59-1.95,3.69-2.93,6.27-2.93,2.09,0,3.8.55,5.12,1.66,1.32,1.11,2.27,2.86,2.84,5.27Z"/>
      <path class="cls-3" d="M134.02,385.85c0-2.14.42-4.08,1.27-5.83.85-1.75,1.96-3.07,3.32-3.94,1.37-.88,2.91-1.31,4.61-1.31,2.87,0,5.13,1.13,6.77,3.38,1.64,2.25,2.46,4.89,2.46,7.9,0,2.25-.43,4.27-1.28,6.08-.85,1.81-1.98,3.17-3.36,4.08s-2.91,1.37-4.56,1.37c-2.65,0-4.85-1.01-6.6-3.04-1.75-2.03-2.62-4.92-2.62-8.67ZM138.86,386.16c0,2.21.43,3.88,1.29,5.01.86,1.13,1.9,1.7,3.12,1.7s2.21-.57,3.06-1.71c.85-1.14,1.27-2.82,1.27-5.04s-.43-3.82-1.3-4.96c-.86-1.14-1.9-1.71-3.1-1.71s-2.22.57-3.07,1.71-1.28,2.8-1.28,5Z"/>
      <path class="cls-3" d="M172.41,397.05h-4.74v-11.13c0-2.23-.09-3.72-.27-4.46-.18-.74-.51-1.31-.99-1.7-.49-.4-1.04-.6-1.65-.6-.79,0-1.51.26-2.15.77s-1.09,1.22-1.35,2.12-.39,2.61-.39,5.11v9.88h-4.74v-21.78h4.39v3.18c.78-1.23,1.66-2.15,2.64-2.77s2.06-.92,3.25-.92c1.38,0,2.55.36,3.5,1.08s1.61,1.64,1.97,2.77c.36,1.13.54,2.76.54,4.9v13.55Z"/>
      <path class="cls-3" d="M176.1,385.85c0-2.14.42-4.08,1.27-5.83.85-1.75,1.96-3.07,3.32-3.94,1.37-.88,2.91-1.31,4.61-1.31,2.87,0,5.13,1.13,6.77,3.38,1.64,2.25,2.46,4.89,2.46,7.9,0,2.25-.43,4.27-1.28,6.08-.85,1.81-1.98,3.17-3.36,4.08s-2.91,1.37-4.56,1.37c-2.65,0-4.85-1.01-6.6-3.04-1.75-2.03-2.62-4.92-2.62-8.67ZM180.94,386.16c0,2.21.43,3.88,1.29,5.01.86,1.13,1.9,1.7,3.12,1.7s2.21-.57,3.06-1.71c.85-1.14,1.27-2.82,1.27-5.04s-.43-3.82-1.3-4.96c-.86-1.14-1.9-1.71-3.1-1.71s-2.22.57-3.07,1.71-1.28,2.8-1.28,5Z"/>
      <path class="cls-3" d="M213.83,381.69l-4.66,1.03c-.34-2.28-1.42-3.42-3.24-3.42-1.17,0-2.11.49-2.83,1.48-.71.99-1.07,2.65-1.07,5,0,2.59.36,4.42,1.07,5.49.71,1.07,1.67,1.6,2.86,1.6.89,0,1.62-.3,2.2-.91s.99-1.69,1.23-3.23l4.66.96c-.96,5.25-3.71,7.88-8.26,7.88-2.91,0-5.07-1.11-6.48-3.33s-2.11-4.89-2.11-8.01c0-3.74.8-6.58,2.39-8.54,1.59-1.95,3.69-2.93,6.27-2.93,2.09,0,3.8.55,5.12,1.66,1.32,1.11,2.27,2.86,2.84,5.27Z"/>
      <path class="cls-3" d="M227.78,390.14l4.7.96c-.63,2.19-1.61,3.81-2.94,4.87-1.33,1.06-2.94,1.59-4.85,1.59-2.64,0-4.68-.88-6.12-2.65-1.7-2.05-2.55-4.93-2.55-8.63s.85-6.56,2.56-8.75c1.45-1.85,3.32-2.77,5.62-2.77,2.56,0,4.56.94,6.01,2.83,1.67,2.16,2.5,5.35,2.5,9.57l-.02.66h-11.83c.03,1.73.41,3.07,1.16,4.01.75.95,1.65,1.42,2.71,1.42,1.52,0,2.54-1.04,3.04-3.12ZM228.03,384.29c-.04-1.7-.4-2.98-1.09-3.84s-1.5-1.29-2.44-1.29c-1,0-1.84.45-2.52,1.34-.7.91-1.04,2.17-1.03,3.79h7.08Z"/>
      <path class="cls-3" d="M241.09,397.05h-4.74v-21.78h4.39v3.1c.75-1.45,1.43-2.41,2.02-2.89s1.28-.72,2.06-.72c1.08,0,2.11.36,3.1,1.09l-1.48,5.02c-.78-.63-1.52-.94-2.21-.94-.66,0-1.23.24-1.73.73s-.86,1.37-1.08,2.64c-.22,1.27-.33,3.61-.33,7.02v6.73Z"/>
      <path class="cls-3" d="M249.83,391.28h4.72v4.12c0,2.34-.27,4.07-.82,5.21-.67,1.41-1.79,2.45-3.36,3.14l-.92-2.38c.93-.38,1.6-.9,2.01-1.55s.63-1.58.66-2.78h-2.28v-5.76Z"/>
    </g>
    <g>
      <path class="cls-3" d="M61.25,447.45h-4.74v-21.78h4.39v3.1c.75-1.45,1.43-2.41,2.02-2.89s1.28-.72,2.06-.72c1.08,0,2.11.36,3.1,1.09l-1.48,5.02c-.78-.63-1.52-.94-2.21-.94-.66,0-1.23.24-1.73.73s-.86,1.37-1.08,2.64c-.22,1.27-.33,3.61-.33,7.02v6.73Z"/>
      <path class="cls-3" d="M80.49,440.54l4.7.96c-.63,2.19-1.61,3.81-2.94,4.87-1.33,1.06-2.94,1.59-4.85,1.59-2.64,0-4.68-.88-6.12-2.65-1.7-2.05-2.55-4.93-2.55-8.63s.85-6.56,2.56-8.75c1.45-1.85,3.32-2.77,5.62-2.77,2.56,0,4.56.94,6.01,2.83,1.67,2.16,2.5,5.35,2.5,9.57l-.02.66h-11.83c.03,1.73.41,3.07,1.16,4.01.75.95,1.65,1.42,2.71,1.42,1.52,0,2.54-1.04,3.04-3.12ZM80.74,434.69c-.04-1.7-.4-2.98-1.09-3.84s-1.5-1.29-2.44-1.29c-1,0-1.84.45-2.52,1.34-.7.91-1.04,2.17-1.03,3.79h7.08Z"/>
      <path class="cls-3" d="M89.12,425.67h4.39v3.2c.6-1.15,1.4-2.05,2.38-2.72s2.05-.99,3.18-.99c2.04,0,3.8.97,5.27,2.92,1.47,1.95,2.21,4.7,2.21,8.28,0,3.75-.74,6.63-2.21,8.62-1.48,1.99-3.23,2.99-5.27,2.99-.94,0-1.82-.23-2.64-.69s-1.67-1.29-2.57-2.49v10.95h-4.74v-30.06ZM93.8,436.19c0,2.47.4,4.29,1.2,5.45.8,1.17,1.76,1.75,2.9,1.75s1.99-.54,2.72-1.61c.74-1.08,1.1-2.83,1.1-5.28s-.38-4.03-1.14-5.13c-.76-1.1-1.68-1.66-2.77-1.66-1.15,0-2.1.54-2.87,1.61-.76,1.08-1.15,2.7-1.15,4.86Z"/>
      <path class="cls-3" d="M114.84,447.45h-4.74v-21.78h4.39v3.1c.75-1.45,1.43-2.41,2.02-2.89s1.28-.72,2.06-.72c1.08,0,2.11.36,3.1,1.09l-1.48,5.02c-.78-.63-1.52-.94-2.21-.94-.66,0-1.23.24-1.73.73s-.86,1.37-1.08,2.64c-.22,1.27-.33,3.61-.33,7.02v6.73Z"/>
      <path class="cls-3" d="M134.08,440.54l4.7.96c-.63,2.19-1.61,3.81-2.94,4.87-1.33,1.06-2.94,1.59-4.85,1.59-2.64,0-4.68-.88-6.12-2.65-1.7-2.05-2.55-4.93-2.55-8.63s.85-6.56,2.56-8.75c1.45-1.85,3.32-2.77,5.62-2.77,2.56,0,4.56.94,6.01,2.83,1.67,2.16,2.5,5.35,2.5,9.57l-.02.66h-11.83c.03,1.73.41,3.07,1.16,4.01.75.95,1.65,1.42,2.71,1.42,1.52,0,2.54-1.04,3.04-3.12ZM134.32,434.69c-.04-1.7-.4-2.98-1.09-3.84s-1.5-1.29-2.44-1.29c-1,0-1.84.45-2.52,1.34-.7.91-1.04,2.17-1.03,3.79h7.08Z"/>
      <path class="cls-3" d="M141.24,441.25l4.74-.88c.41,2.28,1.68,3.42,3.81,3.42,1.13,0,1.98-.22,2.54-.66.56-.44.84-1,.84-1.7,0-.48-.12-.85-.37-1.13-.26-.27-.77-.51-1.54-.72-3.88-1.03-6.35-2.01-7.4-2.95-1.31-1.16-1.97-2.76-1.97-4.79s.64-3.65,1.93-4.87c1.29-1.22,3.15-1.83,5.6-1.83s4.12.45,5.33,1.36,2.07,2.38,2.56,4.4l-4.45,1c-.4-1.75-1.52-2.62-3.36-2.62-1.16,0-1.99.17-2.48.5-.49.34-.74.77-.74,1.3,0,.48.23.88.68,1.19.45.33,1.85.83,4.2,1.49,2.64.75,4.43,1.65,5.37,2.7.93,1.05,1.4,2.46,1.4,4.21,0,2.11-.72,3.84-2.16,5.21-1.44,1.37-3.44,2.05-5.98,2.05-2.31,0-4.2-.57-5.66-1.71s-2.43-2.81-2.89-4.99Z"/>
      <path class="cls-3" d="M172.43,440.54l4.7.96c-.63,2.19-1.61,3.81-2.94,4.87-1.33,1.06-2.94,1.59-4.85,1.59-2.64,0-4.68-.88-6.12-2.65-1.7-2.05-2.55-4.93-2.55-8.63s.85-6.56,2.56-8.75c1.45-1.85,3.32-2.77,5.62-2.77,2.56,0,4.56.94,6.01,2.83,1.67,2.16,2.5,5.35,2.5,9.57l-.02.66h-11.83c.03,1.73.41,3.07,1.16,4.01.75.95,1.65,1.42,2.71,1.42,1.52,0,2.54-1.04,3.04-3.12ZM172.67,434.69c-.04-1.7-.4-2.98-1.09-3.84s-1.5-1.29-2.44-1.29c-1,0-1.84.45-2.52,1.34-.7.91-1.04,2.17-1.03,3.79h7.08Z"/>
      <path class="cls-3" d="M197.45,447.45h-4.74v-11.13c0-2.23-.09-3.72-.27-4.46-.18-.74-.51-1.31-.99-1.7-.49-.4-1.04-.6-1.65-.6-.79,0-1.51.26-2.15.77s-1.09,1.22-1.35,2.12-.39,2.61-.39,5.11v9.88h-4.74v-21.78h4.39v3.18c.78-1.23,1.66-2.15,2.64-2.77s2.06-.92,3.25-.92c1.38,0,2.55.36,3.5,1.08s1.61,1.64,1.97,2.77c.36,1.13.54,2.76.54,4.9v13.55Z"/>
      <path class="cls-3" d="M210.41,425.67v4.59h-3.22v8.79c0,1.9.05,3.01.14,3.31.19.55.58.82,1.17.82.44,0,1.07-.18,1.89-.55l.41,4.47c-1.09.57-2.33.86-3.71.86-1.2,0-2.17-.29-2.89-.86s-1.21-1.4-1.46-2.48c-.19-.79-.29-2.41-.29-4.85v-9.51h-2.17v-4.59h2.17v-4.33l4.74-3.36v7.69h3.22Z"/>
      <path class="cls-3" d="M217.24,432.29l-4.29-.94c.52-2.2,1.38-3.78,2.57-4.75s2.92-1.45,5.16-1.45c2,0,3.52.28,4.57.84s1.8,1.32,2.26,2.29c.45.96.68,2.72.68,5.27l-.04,6.73c0,1.89.08,3.29.23,4.22s.43,1.91.84,2.95h-4.68l-.62-2.38c-.81.96-1.67,1.68-2.59,2.16s-1.9.73-2.94.73c-1.74,0-3.16-.58-4.27-1.76-1.11-1.17-1.66-2.73-1.66-4.67,0-1.23.23-2.31.68-3.22.45-.92,1.09-1.65,1.91-2.2.82-.55,2.13-1.03,3.94-1.46,2.19-.51,3.71-.98,4.57-1.42,0-1.21-.09-2-.26-2.38s-.49-.69-.94-.93c-.46-.24-1.1-.36-1.94-.36s-1.51.19-2,.57-.88,1.1-1.18,2.15ZM223.55,436.99c-.6.25-1.54.53-2.81.86-1.46.38-2.42.81-2.87,1.28s-.68,1.07-.68,1.81c0,.84.25,1.54.75,2.11.5.57,1.12.85,1.88.85.67,0,1.33-.23,1.99-.69s1.11-1,1.36-1.64c.25-.63.38-1.78.38-3.44v-1.15Z"/>
      <path class="cls-3" d="M237.4,447.45h-4.74v-21.78h4.39v3.1c.75-1.45,1.43-2.41,2.02-2.89s1.28-.72,2.06-.72c1.08,0,2.11.36,3.1,1.09l-1.48,5.02c-.78-.63-1.52-.94-2.21-.94-.66,0-1.23.24-1.73.73s-.86,1.37-1.08,2.64c-.22,1.27-.33,3.61-.33,7.02v6.73Z"/>
      <path class="cls-3" d="M253.2,425.67h5.05l4.25,15.47,4.17-15.47h4.9l-6.3,20.96-1.21,4.08c-.53,1.53-1.06,2.65-1.59,3.36-.53.71-1.2,1.26-2.01,1.64-.81.38-1.82.57-3.01.57-.92,0-1.81-.12-2.69-.35l-.41-4.51c.74.18,1.4.27,1.99.27.9,0,1.64-.3,2.23-.9.58-.6,1.06-1.69,1.43-3.27l-6.79-21.85Z"/>
    </g>
    <g>
      <path class="cls-3" d="M98.38,476.07h4.35v2.97c.78-1.16,1.63-2.03,2.56-2.61s1.93-.87,3.01-.87c1.15,0,2.14.29,2.98.86s1.53,1.44,2.06,2.6c.79-1.16,1.64-2.03,2.55-2.6s1.88-.86,2.9-.86c1.22,0,2.27.29,3.15.87s1.55,1.41,2.01,2.49c.46,1.08.69,2.74.69,4.99v13.94h-4.74v-12.46c0-2.18-.19-3.62-.57-4.34s-1.03-1.08-1.93-1.08c-1.05,0-1.9.5-2.54,1.51s-.96,2.97-.96,5.9v10.47h-4.74v-11.95c0-2.37-.13-3.89-.39-4.58-.34-.9-1.03-1.35-2.07-1.35-.7,0-1.34.23-1.93.7s-1.01,1.15-1.27,2.04c-.26.9-.39,2.41-.39,4.55v10.59h-4.74v-21.78Z"/>
      <path class="cls-3" d="M128.26,486.65c0-2.14.42-4.08,1.27-5.83.85-1.75,1.96-3.07,3.32-3.94,1.37-.88,2.91-1.31,4.61-1.31,2.87,0,5.13,1.13,6.77,3.38,1.64,2.25,2.46,4.89,2.46,7.9,0,2.25-.43,4.27-1.28,6.08-.85,1.81-1.98,3.17-3.36,4.08s-2.91,1.37-4.56,1.37c-2.65,0-4.85-1.01-6.6-3.04-1.75-2.03-2.62-4.92-2.62-8.67ZM133.1,486.96c0,2.21.43,3.88,1.29,5.01.86,1.13,1.9,1.7,3.12,1.7s2.21-.57,3.06-1.71c.85-1.14,1.27-2.82,1.27-5.04s-.43-3.82-1.3-4.96c-.86-1.14-1.9-1.71-3.1-1.71s-2.22.57-3.07,1.71-1.28,2.8-1.28,5Z"/>
      <path class="cls-3" d="M166.77,497.85h-4.39v-3.2c-.72,1.23-1.58,2.16-2.56,2.78s-2,.93-3.04.93c-2,0-3.74-1-5.22-2.99-1.48-1.99-2.23-4.84-2.23-8.54s.72-6.54,2.17-8.43c1.45-1.9,3.23-2.85,5.34-2.85,1,0,1.93.25,2.79.76.87.51,1.66,1.26,2.39,2.28v-10.81h4.74v30.06ZM154.18,486.48c0,1.98.17,3.45.5,4.41.33.97.81,1.69,1.43,2.18.62.49,1.32.73,2.1.73,1.04,0,1.94-.56,2.7-1.69.76-1.12,1.15-2.82,1.15-5.08,0-2.51-.37-4.32-1.12-5.42-.74-1.1-1.69-1.66-2.83-1.66s-2.02.54-2.78,1.62c-.76,1.08-1.15,2.71-1.15,4.9Z"/>
      <path class="cls-3" d="M181.82,490.94l4.7.96c-.63,2.19-1.61,3.81-2.94,4.87-1.33,1.06-2.94,1.59-4.85,1.59-2.64,0-4.68-.88-6.12-2.65-1.7-2.05-2.55-4.93-2.55-8.63s.85-6.56,2.56-8.75c1.45-1.85,3.32-2.77,5.62-2.77,2.56,0,4.56.94,6.01,2.83,1.67,2.16,2.5,5.35,2.5,9.57l-.02.66h-11.83c.03,1.73.41,3.07,1.16,4.01.75.95,1.65,1.42,2.71,1.42,1.52,0,2.54-1.04,3.04-3.12ZM182.07,485.09c-.04-1.7-.4-2.98-1.09-3.84s-1.5-1.29-2.44-1.29c-1,0-1.84.45-2.52,1.34-.7.91-1.04,2.17-1.03,3.79h7.08Z"/>
      <path class="cls-3" d="M190.6,497.85v-30.06h4.74v30.06h-4.74Z"/>
      <path class="cls-3" d="M203.7,482.69l-4.29-.94c.52-2.2,1.38-3.78,2.57-4.75s2.92-1.45,5.16-1.45c2,0,3.52.28,4.57.84s1.8,1.32,2.26,2.29c.45.96.68,2.72.68,5.27l-.04,6.73c0,1.89.08,3.29.23,4.22s.43,1.91.84,2.95h-4.68l-.62-2.38c-.81.96-1.67,1.68-2.59,2.16s-1.9.73-2.94.73c-1.74,0-3.16-.58-4.27-1.76-1.11-1.17-1.66-2.73-1.66-4.67,0-1.23.23-2.31.68-3.22.45-.92,1.09-1.65,1.91-2.2.82-.55,2.13-1.03,3.94-1.46,2.19-.51,3.71-.98,4.57-1.42,0-1.21-.09-2-.26-2.38s-.49-.69-.94-.93c-.46-.24-1.1-.36-1.94-.36s-1.51.19-2,.57-.88,1.1-1.18,2.15ZM210.02,487.39c-.6.25-1.54.53-2.81.86-1.46.38-2.42.81-2.87,1.28s-.68,1.07-.68,1.81c0,.84.25,1.54.75,2.11.5.57,1.12.85,1.88.85.67,0,1.33-.23,1.99-.69s1.11-1,1.36-1.64c.25-.63.38-1.78.38-3.44v-1.15Z"/>
      <path class="cls-3" d="M223.86,497.85h-4.74v-21.78h4.39v3.1c.75-1.45,1.43-2.41,2.02-2.89s1.28-.72,2.06-.72c1.08,0,2.11.36,3.1,1.09l-1.48,5.02c-.78-.63-1.52-.94-2.21-.94-.66,0-1.23.24-1.73.73s-.86,1.37-1.08,2.64c-.22,1.27-.33,3.61-.33,7.02v6.73Z"/>
    </g>
    <g>
      <path class="cls-3" d="M34.06,542.05l4.74-.88c.41,2.28,1.68,3.42,3.81,3.42,1.13,0,1.98-.22,2.54-.66.56-.44.84-1,.84-1.7,0-.48-.12-.85-.37-1.13-.26-.27-.77-.51-1.54-.72-3.88-1.03-6.35-2.01-7.4-2.95-1.31-1.16-1.97-2.76-1.97-4.79s.64-3.65,1.93-4.87c1.29-1.22,3.15-1.83,5.6-1.83s4.12.45,5.33,1.36,2.07,2.38,2.56,4.4l-4.45,1c-.4-1.75-1.52-2.62-3.36-2.62-1.16,0-1.99.17-2.48.5-.49.34-.74.77-.74,1.3,0,.48.23.88.68,1.19.45.33,1.85.83,4.2,1.49,2.64.75,4.43,1.65,5.37,2.7.93,1.05,1.4,2.46,1.4,4.21,0,2.11-.72,3.84-2.16,5.21-1.44,1.37-3.44,2.05-5.98,2.05-2.31,0-4.2-.57-5.66-1.71s-2.43-2.81-2.89-4.99Z"/>
      <path class="cls-3" d="M54.88,523.52v-5.33h4.74v5.33h-4.74ZM54.88,548.25v-21.78h4.74v21.78h-4.74Z"/>
      <path class="cls-3" d="M72.62,526.47v4.59h-3.22v8.79c0,1.9.05,3.01.14,3.31.19.55.58.82,1.17.82.44,0,1.07-.18,1.89-.55l.41,4.47c-1.09.57-2.33.86-3.71.86-1.2,0-2.17-.29-2.89-.86s-1.21-1.4-1.46-2.48c-.19-.79-.29-2.41-.29-4.85v-9.51h-2.17v-4.59h2.17v-4.33l4.74-3.36v7.69h3.22Z"/>
      <path class="cls-3" d="M87.71,548.25v-3.26c-.66,1.18-1.52,2.1-2.58,2.77-1.06.67-2.18,1-3.34,1s-2.22-.31-3.15-.92c-.93-.62-1.62-1.49-2.08-2.63-.46-1.14-.69-2.78-.69-4.95v-13.79h4.74v10.01c0,2.86.07,4.67.21,5.44.14.77.46,1.37.95,1.79.49.42,1.08.64,1.78.64.79,0,1.52-.28,2.19-.83.67-.55,1.11-1.26,1.32-2.13.21-.87.32-2.78.32-5.73v-9.19h4.74v21.78h-4.41Z"/>
      <path class="cls-3" d="M100.57,533.09l-4.29-.94c.52-2.2,1.38-3.78,2.57-4.75s2.92-1.45,5.16-1.45c2,0,3.52.28,4.57.84s1.8,1.32,2.26,2.29c.45.96.68,2.72.68,5.27l-.04,6.73c0,1.89.08,3.29.23,4.22s.43,1.91.84,2.95h-4.68l-.62-2.38c-.81.96-1.67,1.68-2.59,2.16s-1.9.73-2.94.73c-1.74,0-3.16-.58-4.27-1.76-1.11-1.17-1.66-2.73-1.66-4.67,0-1.23.23-2.31.68-3.22.45-.92,1.09-1.65,1.91-2.2.82-.55,2.13-1.03,3.94-1.46,2.19-.51,3.71-.98,4.57-1.42,0-1.21-.09-2-.26-2.38s-.49-.69-.94-.93c-.46-.24-1.1-.36-1.94-.36s-1.51.19-2,.57-.88,1.1-1.18,2.15ZM106.89,537.79c-.6.25-1.54.53-2.81.86-1.46.38-2.42.81-2.87,1.28s-.68,1.07-.68,1.81c0,.84.25,1.54.75,2.11.5.57,1.12.85,1.88.85.67,0,1.33-.23,1.99-.69s1.11-1,1.36-1.64c.25-.63.38-1.78.38-3.44v-1.15Z"/>
      <path class="cls-3" d="M131.78,532.89l-4.66,1.03c-.34-2.28-1.42-3.42-3.24-3.42-1.17,0-2.11.49-2.83,1.48-.71.99-1.07,2.65-1.07,5,0,2.59.36,4.42,1.07,5.49.71,1.07,1.67,1.6,2.86,1.6.89,0,1.62-.3,2.2-.91s.99-1.69,1.23-3.23l4.66.96c-.96,5.25-3.71,7.88-8.26,7.88-2.91,0-5.07-1.11-6.48-3.33s-2.11-4.89-2.11-8.01c0-3.74.8-6.58,2.39-8.54,1.59-1.95,3.69-2.93,6.27-2.93,2.09,0,3.8.55,5.12,1.66,1.32,1.11,2.27,2.86,2.84,5.27Z"/>
      <path class="cls-3" d="M135.35,523.52v-5.33h4.74v5.33h-4.74ZM135.35,548.25v-21.78h4.74v21.78h-4.74Z"/>
      <path class="cls-3" d="M143.82,537.05c0-2.14.42-4.08,1.27-5.83.85-1.75,1.96-3.07,3.32-3.94,1.37-.88,2.91-1.31,4.61-1.31,2.87,0,5.13,1.13,6.77,3.38,1.64,2.25,2.46,4.89,2.46,7.9,0,2.25-.43,4.27-1.28,6.08-.85,1.81-1.98,3.17-3.36,4.08s-2.91,1.37-4.56,1.37c-2.65,0-4.85-1.01-6.6-3.04-1.75-2.03-2.62-4.92-2.62-8.67ZM148.66,537.36c0,2.21.43,3.88,1.29,5.01.86,1.13,1.9,1.7,3.12,1.7s2.21-.57,3.06-1.71c.85-1.14,1.27-2.82,1.27-5.04s-.43-3.82-1.3-4.96c-.86-1.14-1.9-1.71-3.1-1.71s-2.22.57-3.07,1.71-1.28,2.8-1.28,5Z"/>
      <path class="cls-3" d="M182.21,548.25h-4.74v-11.13c0-2.23-.09-3.72-.27-4.46-.18-.74-.51-1.31-.99-1.7-.49-.4-1.04-.6-1.65-.6-.79,0-1.51.26-2.15.77s-1.09,1.22-1.35,2.12-.39,2.61-.39,5.11v9.88h-4.74v-21.78h4.39v3.18c.78-1.23,1.66-2.15,2.64-2.77s2.06-.92,3.25-.92c1.38,0,2.55.36,3.5,1.08s1.61,1.64,1.97,2.77c.36,1.13.54,2.76.54,4.9v13.55Z"/>
      <path class="cls-3" d="M197.39,541.34l4.7.96c-.63,2.19-1.61,3.81-2.94,4.87-1.33,1.06-2.94,1.59-4.85,1.59-2.64,0-4.68-.88-6.12-2.65-1.7-2.05-2.55-4.93-2.55-8.63s.85-6.56,2.56-8.75c1.45-1.85,3.32-2.77,5.62-2.77,2.56,0,4.56.94,6.01,2.83,1.67,2.16,2.5,5.35,2.5,9.57l-.02.66h-11.83c.03,1.73.41,3.07,1.16,4.01.75.95,1.65,1.42,2.71,1.42,1.52,0,2.54-1.04,3.04-3.12ZM197.63,535.49c-.04-1.7-.4-2.98-1.09-3.84s-1.5-1.29-2.44-1.29c-1,0-1.84.45-2.52,1.34-.7.91-1.04,2.17-1.03,3.79h7.08Z"/>
      <path class="cls-3" d="M204.5,542.05l4.74-.88c.41,2.28,1.68,3.42,3.81,3.42,1.13,0,1.98-.22,2.54-.66.56-.44.84-1,.84-1.7,0-.48-.12-.85-.37-1.13-.26-.27-.77-.51-1.54-.72-3.88-1.03-6.35-2.01-7.4-2.95-1.31-1.16-1.97-2.76-1.97-4.79s.64-3.65,1.93-4.87c1.29-1.22,3.15-1.83,5.6-1.83s4.12.45,5.33,1.36,2.07,2.38,2.56,4.4l-4.45,1c-.4-1.75-1.52-2.62-3.36-2.62-1.16,0-1.99.17-2.48.5-.49.34-.74.77-.74,1.3,0,.48.23.88.68,1.19.45.33,1.85.83,4.2,1.49,2.64.75,4.43,1.65,5.37,2.7.93,1.05,1.4,2.46,1.4,4.21,0,2.11-.72,3.84-2.16,5.21-1.44,1.37-3.44,2.05-5.98,2.05-2.31,0-4.2-.57-5.66-1.71s-2.43-2.81-2.89-4.99Z"/>
      <path class="cls-3" d="M246.29,556.53v-10.93c-.64,1.01-1.43,1.79-2.35,2.34-.93.55-1.9.82-2.93.82-1.99,0-3.71-1-5.15-3s-2.16-4.88-2.16-8.65c0-3.56.73-6.31,2.2-8.25s3.26-2.91,5.38-2.91c1.13,0,2.15.31,3.05.93s1.68,1.56,2.35,2.8v-3.22h4.35v30.06h-4.74ZM246.46,537.09c0-2.26-.38-3.93-1.13-5.01-.75-1.08-1.69-1.61-2.81-1.61s-2.08.55-2.85,1.66c-.76,1.1-1.15,2.88-1.15,5.32s.37,4.13,1.12,5.18c.74,1.06,1.65,1.58,2.71,1.58s2.03-.59,2.86-1.77c.83-1.18,1.24-2.96,1.24-5.35Z"/>
      <path class="cls-3" d="M267.39,548.25v-3.26c-.66,1.18-1.52,2.1-2.58,2.77-1.06.67-2.18,1-3.34,1s-2.22-.31-3.15-.92c-.93-.62-1.62-1.49-2.08-2.63-.46-1.14-.69-2.78-.69-4.95v-13.79h4.74v10.01c0,2.86.07,4.67.21,5.44.14.77.46,1.37.95,1.79.49.42,1.08.64,1.78.64.79,0,1.52-.28,2.19-.83.67-.55,1.11-1.26,1.32-2.13.21-.87.32-2.78.32-5.73v-9.19h4.74v21.78h-4.41Z"/>
      <path class="cls-3" d="M287.1,541.34l4.7.96c-.63,2.19-1.61,3.81-2.94,4.87-1.33,1.06-2.94,1.59-4.85,1.59-2.64,0-4.68-.88-6.12-2.65-1.7-2.05-2.55-4.93-2.55-8.63s.85-6.56,2.56-8.75c1.45-1.85,3.32-2.77,5.62-2.77,2.56,0,4.56.94,6.01,2.83,1.67,2.16,2.5,5.35,2.5,9.57l-.02.66h-11.83c.03,1.73.41,3.07,1.16,4.01.75.95,1.65,1.42,2.71,1.42,1.52,0,2.54-1.04,3.04-3.12ZM287.35,535.49c-.04-1.7-.4-2.98-1.09-3.84s-1.5-1.29-2.44-1.29c-1,0-1.84.45-2.52,1.34-.7.91-1.04,2.17-1.03,3.79h7.08Z"/>
    </g>
    <g>
      <path class="cls-3" d="M78.68,573.92v-5.33h4.74v5.33h-4.74ZM78.68,598.65v-21.78h4.74v21.78h-4.74Z"/>
      <path class="cls-3" d="M104.5,598.65h-4.74v-11.13c0-2.23-.09-3.72-.27-4.46-.18-.74-.51-1.31-.99-1.7-.49-.4-1.04-.6-1.65-.6-.79,0-1.51.26-2.15.77s-1.09,1.22-1.35,2.12-.39,2.61-.39,5.11v9.88h-4.74v-21.78h4.39v3.18c.78-1.23,1.66-2.15,2.64-2.77s2.06-.92,3.25-.92c1.38,0,2.55.36,3.5,1.08s1.61,1.64,1.97,2.77c.36,1.13.54,2.76.54,4.9v13.55Z"/>
      <path class="cls-3" d="M114.24,598.65l-7.24-21.78h4.94l3.37,11.12.98,3.71,1-3.71,3.42-11.12h4.84l-7.12,21.78h-4.2Z"/>
      <path class="cls-3" d="M127.35,587.45c0-2.14.42-4.08,1.27-5.83.85-1.75,1.96-3.07,3.32-3.94,1.37-.88,2.91-1.31,4.61-1.31,2.87,0,5.13,1.13,6.77,3.38,1.64,2.25,2.46,4.89,2.46,7.9,0,2.25-.43,4.27-1.28,6.08-.85,1.81-1.98,3.17-3.36,4.08s-2.91,1.37-4.56,1.37c-2.65,0-4.85-1.01-6.6-3.04-1.75-2.03-2.62-4.92-2.62-8.67ZM132.19,587.76c0,2.21.43,3.88,1.29,5.01.86,1.13,1.9,1.7,3.12,1.7s2.21-.57,3.06-1.71c.85-1.14,1.27-2.82,1.27-5.04s-.43-3.82-1.3-4.96c-.86-1.14-1.9-1.71-3.1-1.71s-2.22.57-3.07,1.71-1.28,2.8-1.28,5Z"/>
      <path class="cls-3" d="M149.5,598.65v-30.06h4.74v30.06h-4.74Z"/>
      <path class="cls-3" d="M170.78,598.65v-3.26c-.66,1.18-1.52,2.1-2.58,2.77-1.06.67-2.18,1-3.34,1s-2.22-.31-3.15-.92c-.93-.62-1.62-1.49-2.08-2.63-.46-1.14-.69-2.78-.69-4.95v-13.79h4.74v10.01c0,2.86.07,4.67.21,5.44.14.77.46,1.37.95,1.79.49.42,1.08.64,1.78.64.79,0,1.52-.28,2.19-.83.67-.55,1.11-1.26,1.32-2.13.21-.87.32-2.78.32-5.73v-9.19h4.74v21.78h-4.41Z"/>
      <path class="cls-3" d="M195.7,583.29l-4.66,1.03c-.34-2.28-1.42-3.42-3.24-3.42-1.17,0-2.11.49-2.83,1.48-.71.99-1.07,2.65-1.07,5,0,2.59.36,4.42,1.07,5.49.71,1.07,1.67,1.6,2.86,1.6.89,0,1.62-.3,2.2-.91s.99-1.69,1.23-3.23l4.66.96c-.96,5.25-3.71,7.88-8.26,7.88-2.91,0-5.07-1.11-6.48-3.33s-2.11-4.89-2.11-8.01c0-3.74.8-6.58,2.39-8.54,1.59-1.95,3.69-2.93,6.27-2.93,2.09,0,3.8.55,5.12,1.66,1.32,1.11,2.27,2.86,2.84,5.27Z"/>
      <path class="cls-3" d="M203.8,598.65h-4.74v-21.78h4.39v3.1c.75-1.45,1.43-2.41,2.02-2.89s1.28-.72,2.06-.72c1.08,0,2.11.36,3.1,1.09l-1.48,5.02c-.78-.63-1.52-.94-2.21-.94-.66,0-1.23.24-1.73.73s-.86,1.37-1.08,2.64c-.22,1.27-.33,3.61-.33,7.02v6.73Z"/>
      <path class="cls-3" d="M216.19,583.49l-4.29-.94c.52-2.2,1.38-3.78,2.57-4.75s2.92-1.45,5.16-1.45c2,0,3.52.28,4.57.84s1.8,1.32,2.26,2.29c.45.96.68,2.72.68,5.27l-.04,6.73c0,1.89.08,3.29.23,4.22s.43,1.91.84,2.95h-4.68l-.62-2.38c-.81.96-1.67,1.68-2.59,2.16s-1.9.73-2.94.73c-1.74,0-3.16-.58-4.27-1.76-1.11-1.17-1.66-2.73-1.66-4.67,0-1.23.23-2.31.68-3.22.45-.92,1.09-1.65,1.91-2.2.82-.55,2.13-1.03,3.94-1.46,2.19-.51,3.71-.98,4.57-1.42,0-1.21-.09-2-.26-2.38s-.49-.69-.94-.93c-.46-.24-1.1-.36-1.94-.36s-1.51.19-2,.57-.88,1.1-1.18,2.15ZM222.5,588.19c-.6.25-1.54.53-2.81.86-1.46.38-2.42.81-2.87,1.28s-.68,1.07-.68,1.81c0,.84.25,1.54.75,2.11.5.57,1.12.85,1.88.85.67,0,1.33-.23,1.99-.69s1.11-1,1.36-1.64c.25-.63.38-1.78.38-3.44v-1.15Z"/>
      <path class="cls-3" d="M248.06,598.65h-4.74v-11.13c0-2.23-.09-3.72-.27-4.46-.18-.74-.51-1.31-.99-1.7-.49-.4-1.04-.6-1.65-.6-.79,0-1.51.26-2.15.77s-1.09,1.22-1.35,2.12-.39,2.61-.39,5.11v9.88h-4.74v-21.78h4.39v3.18c.78-1.23,1.66-2.15,2.64-2.77s2.06-.92,3.25-.92c1.38,0,2.55.36,3.5,1.08s1.61,1.64,1.97,2.77c.36,1.13.54,2.76.54,4.9v13.55Z"/>
    </g>
    <g>
      <path class="cls-3" d="M89.77,633.77l-4.29-.94c.52-2.2,1.38-3.78,2.57-4.75s2.92-1.45,5.16-1.45c2,0,3.52.28,4.57.84s1.8,1.32,2.26,2.29c.45.96.68,2.72.68,5.27l-.04,6.73c0,1.89.08,3.29.23,4.22s.43,1.91.84,2.95h-4.68l-.62-2.38c-.81.96-1.67,1.68-2.59,2.16s-1.9.73-2.94.73c-1.74,0-3.16-.58-4.27-1.76-1.11-1.17-1.66-2.73-1.66-4.67,0-1.23.23-2.31.68-3.22.45-.92,1.09-1.65,1.91-2.2.82-.55,2.13-1.03,3.94-1.46,2.19-.51,3.71-.98,4.57-1.42,0-1.21-.09-2-.26-2.38s-.49-.69-.94-.93c-.46-.24-1.1-.36-1.94-.36s-1.51.19-2,.57-.88,1.1-1.18,2.15ZM96.08,638.47c-.6.25-1.54.53-2.81.86-1.46.38-2.42.81-2.87,1.28s-.68,1.07-.68,1.81c0,.84.25,1.54.75,2.11.5.57,1.12.85,1.88.85.67,0,1.33-.23,1.99-.69s1.11-1,1.36-1.64c.25-.63.38-1.78.38-3.44v-1.15Z"/>
      <path class="cls-3" d="M121.76,648.93h-4.39v-3.2c-.72,1.23-1.58,2.16-2.56,2.78s-2,.93-3.04.93c-2,0-3.74-1-5.22-2.99-1.48-1.99-2.23-4.84-2.23-8.54s.72-6.54,2.17-8.43c1.45-1.9,3.23-2.85,5.34-2.85,1,0,1.93.25,2.79.76.87.51,1.66,1.26,2.39,2.28v-10.81h4.74v30.06ZM109.17,637.56c0,1.98.17,3.45.5,4.41.33.97.81,1.69,1.43,2.18.62.49,1.32.73,2.1.73,1.04,0,1.94-.56,2.7-1.69.76-1.12,1.15-2.82,1.15-5.08,0-2.51-.37-4.32-1.12-5.42-.74-1.1-1.69-1.66-2.83-1.66s-2.02.54-2.78,1.62c-.76,1.08-1.15,2.71-1.15,4.9Z"/>
      <path class="cls-3" d="M126.44,624.19v-5.33h4.74v5.33h-4.74ZM126.44,648.93v-21.78h4.74v21.78h-4.74Z"/>
      <path class="cls-3" d="M151.6,633.57l-4.66,1.03c-.34-2.28-1.42-3.42-3.24-3.42-1.17,0-2.11.49-2.83,1.48-.71.99-1.07,2.65-1.07,5,0,2.59.36,4.42,1.07,5.49.71,1.07,1.67,1.6,2.86,1.6.89,0,1.62-.3,2.2-.91s.99-1.69,1.23-3.23l4.66.96c-.96,5.25-3.71,7.88-8.26,7.88-2.91,0-5.07-1.11-6.48-3.33s-2.11-4.89-2.11-8.01c0-3.74.8-6.58,2.39-8.54,1.59-1.95,3.69-2.93,6.27-2.93,2.09,0,3.8.55,5.12,1.66,1.32,1.11,2.27,2.86,2.84,5.27Z"/>
      <path class="cls-3" d="M155.17,624.19v-5.33h4.74v5.33h-4.74ZM155.17,648.93v-21.78h4.74v21.78h-4.74Z"/>
      <path class="cls-3" d="M163.64,637.73c0-2.14.42-4.08,1.27-5.83.85-1.75,1.96-3.07,3.32-3.94,1.37-.88,2.91-1.31,4.61-1.31,2.87,0,5.13,1.13,6.77,3.38,1.64,2.25,2.46,4.89,2.46,7.9,0,2.25-.43,4.27-1.28,6.08-.85,1.81-1.98,3.17-3.36,4.08s-2.91,1.37-4.56,1.37c-2.65,0-4.85-1.01-6.6-3.04-1.75-2.03-2.62-4.92-2.62-8.67ZM168.48,638.04c0,2.21.43,3.88,1.29,5.01.86,1.13,1.9,1.7,3.12,1.7s2.21-.57,3.06-1.71c.85-1.14,1.27-2.82,1.27-5.04s-.43-3.82-1.3-4.96c-.86-1.14-1.9-1.71-3.1-1.71s-2.22.57-3.07,1.71-1.28,2.8-1.28,5Z"/>
      <path class="cls-3" d="M202.03,648.93h-4.74v-11.13c0-2.23-.09-3.72-.27-4.46-.18-.74-.51-1.31-.99-1.7-.49-.4-1.04-.6-1.65-.6-.79,0-1.51.26-2.15.77s-1.09,1.22-1.35,2.12-.39,2.61-.39,5.11v9.88h-4.74v-21.78h4.39v3.18c.78-1.23,1.66-2.15,2.64-2.77s2.06-.92,3.25-.92c1.38,0,2.55.36,3.5,1.08s1.61,1.64,1.97,2.77c.36,1.13.54,2.76.54,4.9v13.55Z"/>
      <path class="cls-3" d="M217.2,642.02l4.7.96c-.63,2.19-1.61,3.81-2.94,4.87-1.33,1.06-2.94,1.59-4.85,1.59-2.64,0-4.68-.88-6.12-2.65-1.7-2.05-2.55-4.93-2.55-8.63s.85-6.56,2.56-8.75c1.45-1.85,3.32-2.77,5.62-2.77,2.56,0,4.56.94,6.01,2.83,1.67,2.16,2.5,5.35,2.5,9.57l-.02.66h-11.83c.03,1.73.41,3.07,1.16,4.01.75.95,1.65,1.42,2.71,1.42,1.52,0,2.54-1.04,3.04-3.12ZM217.45,636.17c-.04-1.7-.4-2.98-1.09-3.84s-1.5-1.29-2.44-1.29c-1,0-1.84.45-2.52,1.34-.7.91-1.04,2.17-1.03,3.79h7.08Z"/>
      <path class="cls-3" d="M224.32,642.73l4.74-.88c.41,2.28,1.68,3.42,3.81,3.42,1.13,0,1.98-.22,2.54-.66.56-.44.84-1,.84-1.7,0-.48-.12-.85-.37-1.13-.26-.27-.77-.51-1.54-.72-3.88-1.03-6.35-2.01-7.4-2.95-1.31-1.16-1.97-2.76-1.97-4.79s.64-3.65,1.93-4.87c1.29-1.22,3.15-1.83,5.6-1.83s4.12.45,5.33,1.36,2.07,2.38,2.56,4.4l-4.45,1c-.4-1.75-1.52-2.62-3.36-2.62-1.16,0-1.99.17-2.48.5-.49.34-.74.77-.74,1.3,0,.48.23.88.68,1.19.45.33,1.85.83,4.2,1.49,2.64.75,4.43,1.65,5.37,2.7.93,1.05,1.4,2.46,1.4,4.21,0,2.11-.72,3.84-2.16,5.21-1.44,1.37-3.44,2.05-5.98,2.05-2.31,0-4.2-.57-5.66-1.71s-2.43-2.81-2.89-4.99Z"/>
    </g>
    <g>
      <path class="cls-3" d="M33.23,677.55h5.05l4.25,15.47,4.17-15.47h4.9l-6.3,20.96-1.21,4.08c-.53,1.53-1.06,2.65-1.59,3.36-.53.71-1.2,1.26-2.01,1.64-.81.38-1.82.57-3.01.57-.92,0-1.81-.12-2.69-.35l-.41-4.51c.74.18,1.4.27,1.99.27.9,0,1.64-.3,2.23-.9.58-.6,1.06-1.69,1.43-3.27l-6.79-21.85Z"/>
      <path class="cls-3" d="M62.55,693.13l4.74-.88c.41,2.28,1.68,3.42,3.81,3.42,1.13,0,1.98-.22,2.54-.66.56-.44.84-1,.84-1.7,0-.48-.12-.85-.37-1.13-.26-.27-.77-.51-1.54-.72-3.88-1.03-6.35-2.01-7.4-2.95-1.31-1.16-1.97-2.76-1.97-4.79s.64-3.65,1.93-4.87c1.29-1.22,3.15-1.83,5.6-1.83s4.12.45,5.33,1.36,2.07,2.38,2.56,4.4l-4.45,1c-.4-1.75-1.52-2.62-3.36-2.62-1.16,0-1.99.17-2.48.5-.49.34-.74.77-.74,1.3,0,.48.23.88.68,1.19.45.33,1.85.83,4.2,1.49,2.64.75,4.43,1.65,5.37,2.7.93,1.05,1.4,2.46,1.4,4.21,0,2.11-.72,3.84-2.16,5.21-1.44,1.37-3.44,2.05-5.98,2.05-2.31,0-4.2-.57-5.66-1.71s-2.43-2.81-2.89-4.99Z"/>
      <path class="cls-3" d="M95.08,699.33v-3.26c-.66,1.18-1.52,2.1-2.58,2.77-1.06.67-2.18,1-3.34,1s-2.22-.31-3.15-.92c-.93-.62-1.62-1.49-2.08-2.63-.46-1.14-.69-2.78-.69-4.95v-13.79h4.74v10.01c0,2.86.07,4.67.21,5.44.14.77.46,1.37.95,1.79.49.42,1.08.64,1.78.64.79,0,1.52-.28,2.19-.83.67-.55,1.11-1.26,1.32-2.13.21-.87.32-2.78.32-5.73v-9.19h4.74v21.78h-4.41Z"/>
      <path class="cls-3" d="M102.75,693.13l4.74-.88c.41,2.28,1.68,3.42,3.81,3.42,1.13,0,1.98-.22,2.54-.66.56-.44.84-1,.84-1.7,0-.48-.12-.85-.37-1.13-.26-.27-.77-.51-1.54-.72-3.88-1.03-6.35-2.01-7.4-2.95-1.31-1.16-1.97-2.76-1.97-4.79s.64-3.65,1.93-4.87c1.29-1.22,3.15-1.83,5.6-1.83s4.12.45,5.33,1.36,2.07,2.38,2.56,4.4l-4.45,1c-.4-1.75-1.52-2.62-3.36-2.62-1.16,0-1.99.17-2.48.5-.49.34-.74.77-.74,1.3,0,.48.23.88.68,1.19.45.33,1.85.83,4.2,1.49,2.64.75,4.43,1.65,5.37,2.7.93,1.05,1.4,2.46,1.4,4.21,0,2.11-.72,3.84-2.16,5.21-1.44,1.37-3.44,2.05-5.98,2.05-2.31,0-4.2-.57-5.66-1.71s-2.43-2.81-2.89-4.99Z"/>
      <path class="cls-3" d="M131.77,677.55v4.59h-3.22v8.79c0,1.9.05,3.01.14,3.31.19.55.58.82,1.17.82.44,0,1.07-.18,1.89-.55l.41,4.47c-1.09.57-2.33.86-3.71.86-1.2,0-2.17-.29-2.89-.86s-1.21-1.4-1.46-2.48c-.19-.79-.29-2.41-.29-4.85v-9.51h-2.17v-4.59h2.17v-4.33l4.74-3.36v7.69h3.22Z"/>
      <path class="cls-3" d="M139.6,699.33h-4.74v-21.78h4.39v3.1c.75-1.45,1.43-2.41,2.02-2.89s1.28-.72,2.06-.72c1.08,0,2.11.36,3.1,1.09l-1.48,5.02c-.78-.63-1.52-.94-2.21-.94-.66,0-1.23.24-1.73.73s-.86,1.37-1.08,2.64c-.22,1.27-.33,3.61-.33,7.02v6.73Z"/>
      <path class="cls-3" d="M151.99,684.17l-4.29-.94c.52-2.2,1.38-3.78,2.57-4.75s2.92-1.45,5.16-1.45c2,0,3.52.28,4.57.84s1.8,1.32,2.26,2.29c.45.96.68,2.72.68,5.27l-.04,6.73c0,1.89.08,3.29.23,4.22s.43,1.91.84,2.95h-4.68l-.62-2.38c-.81.96-1.67,1.68-2.59,2.16s-1.9.73-2.94.73c-1.74,0-3.16-.58-4.27-1.76-1.11-1.17-1.66-2.73-1.66-4.67,0-1.23.23-2.31.68-3.22.45-.92,1.09-1.65,1.91-2.2.82-.55,2.13-1.03,3.94-1.46,2.19-.51,3.71-.98,4.57-1.42,0-1.21-.09-2-.26-2.38s-.49-.69-.94-.93c-.46-.24-1.1-.36-1.94-.36s-1.51.19-2,.57-.88,1.1-1.18,2.15ZM158.3,688.87c-.6.25-1.54.53-2.81.86-1.46.38-2.42.81-2.87,1.28s-.68,1.07-.68,1.81c0,.84.25,1.54.75,2.11.5.57,1.12.85,1.88.85.67,0,1.33-.23,1.99-.69s1.11-1,1.36-1.64c.25-.63.38-1.78.38-3.44v-1.15Z"/>
      <path class="cls-3" d="M183.24,683.97l-4.66,1.03c-.34-2.28-1.42-3.42-3.24-3.42-1.17,0-2.11.49-2.83,1.48-.71.99-1.07,2.65-1.07,5,0,2.59.36,4.42,1.07,5.49.71,1.07,1.67,1.6,2.86,1.6.89,0,1.62-.3,2.2-.91s.99-1.69,1.23-3.23l4.66.96c-.96,5.25-3.71,7.88-8.26,7.88-2.91,0-5.07-1.11-6.48-3.33s-2.11-4.89-2.11-8.01c0-3.74.8-6.58,2.39-8.54,1.59-1.95,3.69-2.93,6.27-2.93,2.09,0,3.8.55,5.12,1.66,1.32,1.11,2.27,2.86,2.84,5.27Z"/>
      <path class="cls-3" d="M202.4,683.97l-4.66,1.03c-.34-2.28-1.42-3.42-3.24-3.42-1.17,0-2.11.49-2.83,1.48-.71.99-1.07,2.65-1.07,5,0,2.59.36,4.42,1.07,5.49.71,1.07,1.67,1.6,2.86,1.6.89,0,1.62-.3,2.2-.91s.99-1.69,1.23-3.23l4.66.96c-.96,5.25-3.71,7.88-8.26,7.88-2.91,0-5.07-1.11-6.48-3.33s-2.11-4.89-2.11-8.01c0-3.74.8-6.58,2.39-8.54,1.59-1.95,3.69-2.93,6.27-2.93,2.09,0,3.8.55,5.12,1.66,1.32,1.11,2.27,2.86,2.84,5.27Z"/>
      <path class="cls-3" d="M205.96,674.6v-5.33h4.74v5.33h-4.74ZM205.96,699.33v-21.78h4.74v21.78h-4.74Z"/>
      <path class="cls-3" d="M214.43,688.13c0-2.14.42-4.08,1.27-5.83.85-1.75,1.96-3.07,3.32-3.94,1.37-.88,2.91-1.31,4.61-1.31,2.87,0,5.13,1.13,6.77,3.38,1.64,2.25,2.46,4.89,2.46,7.9,0,2.25-.43,4.27-1.28,6.08-.85,1.81-1.98,3.17-3.36,4.08s-2.91,1.37-4.56,1.37c-2.65,0-4.85-1.01-6.6-3.04-1.75-2.03-2.62-4.92-2.62-8.67ZM219.27,688.44c0,2.21.43,3.88,1.29,5.01.86,1.13,1.9,1.7,3.12,1.7s2.21-.57,3.06-1.71c.85-1.14,1.27-2.82,1.27-5.04s-.43-3.82-1.3-4.96c-.86-1.14-1.9-1.71-3.1-1.71s-2.22.57-3.07,1.71-1.28,2.8-1.28,5Z"/>
      <path class="cls-3" d="M252.83,699.33h-4.74v-11.13c0-2.23-.09-3.72-.27-4.46-.18-.74-.51-1.31-.99-1.7-.49-.4-1.04-.6-1.65-.6-.79,0-1.51.26-2.15.77s-1.09,1.22-1.35,2.12-.39,2.61-.39,5.11v9.88h-4.74v-21.78h4.39v3.18c.78-1.23,1.66-2.15,2.64-2.77s2.06-.92,3.25-.92c1.38,0,2.55.36,3.5,1.08s1.61,1.64,1.97,2.77c.36,1.13.54,2.76.54,4.9v13.55Z"/>
      <path class="cls-3" d="M268,692.42l4.7.96c-.63,2.19-1.61,3.81-2.94,4.87-1.33,1.06-2.94,1.59-4.85,1.59-2.64,0-4.68-.88-6.12-2.65-1.7-2.05-2.55-4.93-2.55-8.63s.85-6.56,2.56-8.75c1.45-1.85,3.32-2.77,5.62-2.77,2.56,0,4.56.94,6.01,2.83,1.67,2.16,2.5,5.35,2.5,9.57l-.02.66h-11.83c.03,1.73.41,3.07,1.16,4.01.75.95,1.65,1.42,2.71,1.42,1.52,0,2.54-1.04,3.04-3.12ZM268.25,686.57c-.04-1.7-.4-2.98-1.09-3.84s-1.5-1.29-2.44-1.29c-1,0-1.84.45-2.52,1.34-.7.91-1.04,2.17-1.03,3.79h7.08Z"/>
      <path class="cls-3" d="M274.95,693.13l4.74-.88c.41,2.28,1.68,3.42,3.81,3.42,1.13,0,1.98-.22,2.54-.66.56-.44.84-1,.84-1.7,0-.48-.12-.85-.37-1.13-.26-.27-.77-.51-1.54-.72-3.88-1.03-6.35-2.01-7.4-2.95-1.31-1.16-1.97-2.76-1.97-4.79s.64-3.65,1.93-4.87c1.29-1.22,3.15-1.83,5.6-1.83s4.12.45,5.33,1.36,2.07,2.38,2.56,4.4l-4.45,1c-.4-1.75-1.52-2.62-3.36-2.62-1.16,0-1.99.17-2.48.5-.49.34-.74.77-.74,1.3,0,.48.23.88.68,1.19.45.33,1.85.83,4.2,1.49,2.64.75,4.43,1.65,5.37,2.7.93,1.05,1.4,2.46,1.4,4.21,0,2.11-.72,3.84-2.16,5.21-1.44,1.37-3.44,2.05-5.98,2.05-2.31,0-4.2-.57-5.66-1.71s-2.43-2.81-2.89-4.99Z"/>
    </g>
    <g>
      <path class="cls-3" d="M111.12,1321.03l4.82,1.87c-.75,3.36-2,5.82-3.75,7.37s-3.9,2.33-6.46,2.33c-3.21,0-5.82-1.24-7.81-3.71-2.3-2.86-3.45-6.71-3.45-11.57,0-5.13,1.16-9.14,3.47-12.04,2.01-2.52,4.71-3.77,8.11-3.77,2.76,0,5.08.94,6.94,2.83,1.33,1.34,2.3,3.33,2.92,5.97l-4.92,1.44c-.32-1.63-.94-2.87-1.88-3.74-.94-.87-2.04-1.3-3.32-1.3-1.82,0-3.31.79-4.46,2.38s-1.73,4.2-1.73,7.85.56,6.48,1.68,8.08,2.58,2.4,4.37,2.4c1.31,0,2.45-.51,3.4-1.53s1.65-2.64,2.07-4.85Z"/>
      <path class="cls-3" d="M123.7,1316.93l-4.29-.94c.52-2.2,1.38-3.78,2.57-4.75s2.92-1.45,5.16-1.45c2,0,3.52.28,4.57.84s1.8,1.32,2.26,2.29c.45.96.68,2.72.68,5.27l-.04,6.73c0,1.89.08,3.29.23,4.22s.43,1.91.84,2.95h-4.68l-.62-2.38c-.81.96-1.67,1.68-2.59,2.16s-1.9.73-2.94.73c-1.74,0-3.16-.58-4.27-1.76-1.11-1.17-1.66-2.73-1.66-4.67,0-1.23.23-2.31.68-3.22.45-.92,1.09-1.65,1.91-2.2.82-.55,2.13-1.03,3.94-1.46,2.19-.51,3.71-.98,4.57-1.42,0-1.21-.09-2-.26-2.38s-.49-.69-.94-.93c-.46-.24-1.1-.36-1.94-.36s-1.51.19-2,.57-.88,1.1-1.18,2.15ZM130.01,1321.63c-.6.25-1.54.53-2.81.86-1.46.38-2.42.81-2.87,1.28s-.68,1.07-.68,1.81c0,.84.25,1.54.75,2.11.5.57,1.12.85,1.88.85.67,0,1.33-.23,1.99-.69s1.11-1,1.36-1.64c.25-.63.38-1.78.38-3.44v-1.15Z"/>
      <path class="cls-3" d="M139.32,1332.09v-30.06h4.74v30.06h-4.74Z"/>
      <path class="cls-3" d="M164.49,1316.73l-4.66,1.03c-.34-2.28-1.42-3.42-3.24-3.42-1.17,0-2.11.49-2.83,1.48-.71.99-1.07,2.65-1.07,5,0,2.59.36,4.42,1.07,5.49.71,1.07,1.67,1.6,2.86,1.6.89,0,1.62-.3,2.2-.91s.99-1.69,1.23-3.23l4.66.96c-.96,5.25-3.71,7.88-8.26,7.88-2.91,0-5.07-1.11-6.48-3.33s-2.11-4.89-2.11-8.01c0-3.74.8-6.58,2.39-8.54,1.59-1.95,3.69-2.93,6.27-2.93,2.09,0,3.8.55,5.12,1.66,1.32,1.11,2.27,2.86,2.84,5.27Z"/>
      <path class="cls-3" d="M179.76,1332.09v-3.26c-.66,1.18-1.52,2.1-2.58,2.77-1.06.67-2.18,1-3.34,1s-2.22-.31-3.15-.92c-.93-.62-1.62-1.49-2.08-2.63-.46-1.14-.69-2.78-.69-4.95v-13.79h4.74v10.01c0,2.86.07,4.67.21,5.44.14.77.46,1.37.95,1.79.49.42,1.08.64,1.78.64.79,0,1.52-.28,2.19-.83.67-.55,1.11-1.26,1.32-2.13.21-.87.32-2.78.32-5.73v-9.19h4.74v21.78h-4.41Z"/>
      <path class="cls-3" d="M189.1,1332.09v-30.06h4.74v30.06h-4.74Z"/>
      <path class="cls-3" d="M202.2,1316.93l-4.29-.94c.52-2.2,1.38-3.78,2.57-4.75s2.92-1.45,5.16-1.45c2,0,3.52.28,4.57.84s1.8,1.32,2.26,2.29c.45.96.68,2.72.68,5.27l-.04,6.73c0,1.89.08,3.29.23,4.22s.43,1.91.84,2.95h-4.68l-.62-2.38c-.81.96-1.67,1.68-2.59,2.16s-1.9.73-2.94.73c-1.74,0-3.16-.58-4.27-1.76-1.11-1.17-1.66-2.73-1.66-4.67,0-1.23.23-2.31.68-3.22.45-.92,1.09-1.65,1.91-2.2.82-.55,2.13-1.03,3.94-1.46,2.19-.51,3.71-.98,4.57-1.42,0-1.21-.09-2-.26-2.38s-.49-.69-.94-.93c-.46-.24-1.1-.36-1.94-.36s-1.51.19-2,.57-.88,1.1-1.18,2.15ZM208.52,1321.63c-.6.25-1.54.53-2.81.86-1.46.38-2.42.81-2.87,1.28s-.68,1.07-.68,1.81c0,.84.25,1.54.75,2.11.5.57,1.12.85,1.88.85.67,0,1.33-.23,1.99-.69s1.11-1,1.36-1.64c.25-.63.38-1.78.38-3.44v-1.15Z"/>
      <path class="cls-3" d="M222.4,1332.09h-4.74v-21.78h4.39v3.1c.75-1.45,1.43-2.41,2.02-2.89s1.28-.72,2.06-.72c1.08,0,2.11.36,3.1,1.09l-1.48,5.02c-.78-.63-1.52-.94-2.21-.94-.66,0-1.23.24-1.73.73s-.86,1.37-1.08,2.64c-.22,1.27-.33,3.61-.33,7.02v6.73Z"/>
    </g>
    <g>
      <path class="cls-3" d="M56.66,1360.83h4.35v2.97c.78-1.16,1.63-2.03,2.56-2.61s1.93-.87,3.01-.87c1.15,0,2.14.29,2.98.86s1.53,1.44,2.06,2.6c.79-1.16,1.64-2.03,2.55-2.6s1.88-.86,2.9-.86c1.22,0,2.27.29,3.15.87.88.58,1.55,1.41,2.01,2.49s.69,2.74.69,4.99v13.94h-4.74v-12.46c0-2.18-.19-3.62-.57-4.34s-1.03-1.08-1.93-1.08c-1.05,0-1.9.5-2.54,1.51-.64,1.01-.96,2.97-.96,5.9v10.47h-4.74v-11.95c0-2.37-.13-3.89-.39-4.58-.34-.9-1.03-1.36-2.07-1.36-.7,0-1.34.23-1.93.7s-1.01,1.15-1.27,2.04-.39,2.41-.39,4.55v10.59h-4.74v-21.78Z"/>
      <path class="cls-3" d="M98.03,1375.7l4.7.96c-.63,2.19-1.61,3.81-2.94,4.87-1.33,1.06-2.94,1.59-4.85,1.59-2.64,0-4.68-.88-6.12-2.65-1.7-2.05-2.55-4.93-2.55-8.63s.85-6.56,2.56-8.75c1.45-1.85,3.32-2.77,5.62-2.77,2.56,0,4.56.95,6.01,2.83,1.67,2.16,2.5,5.35,2.5,9.57l-.02.66h-11.83c.03,1.73.41,3.07,1.16,4.01.75.95,1.65,1.42,2.71,1.42,1.52,0,2.54-1.04,3.04-3.12ZM98.27,1369.85c-.04-1.7-.4-2.98-1.09-3.84-.68-.86-1.5-1.29-2.44-1.29-1,0-1.84.45-2.52,1.34-.7.91-1.04,2.17-1.03,3.79h7.08Z"/>
      <path class="cls-3" d="M123.05,1382.61h-4.74v-11.13c0-2.23-.09-3.72-.27-4.46s-.51-1.31-.99-1.7c-.49-.4-1.04-.6-1.65-.6-.79,0-1.51.26-2.15.77-.64.51-1.09,1.22-1.35,2.13s-.39,2.61-.39,5.11v9.88h-4.74v-21.78h4.39v3.18c.78-1.23,1.66-2.15,2.64-2.77s2.06-.92,3.25-.92c1.38,0,2.55.36,3.5,1.08.95.72,1.61,1.64,1.97,2.77s.54,2.76.54,4.9v13.55Z"/>
      <path class="cls-3" d="M136.01,1360.83v4.59h-3.22v8.79c0,1.9.05,3.01.14,3.31.19.55.58.82,1.17.82.44,0,1.07-.18,1.89-.55l.41,4.47c-1.09.57-2.33.86-3.71.86-1.2,0-2.17-.29-2.89-.86s-1.21-1.4-1.46-2.48c-.19-.79-.29-2.41-.29-4.85v-9.51h-2.17v-4.59h2.17v-4.33l4.74-3.36v7.69h3.22Z"/>
      <path class="cls-3" d="M142.84,1367.45l-4.29-.94c.52-2.2,1.38-3.78,2.57-4.75,1.2-.96,2.92-1.45,5.16-1.45,2,0,3.52.28,4.57.84s1.8,1.32,2.26,2.29c.45.96.68,2.72.68,5.27l-.04,6.73c0,1.89.08,3.29.23,4.22s.43,1.91.84,2.95h-4.68l-.62-2.38c-.81.96-1.67,1.68-2.59,2.16-.92.48-1.9.73-2.94.73-1.74,0-3.16-.58-4.27-1.76-1.11-1.17-1.66-2.73-1.66-4.67,0-1.23.23-2.31.68-3.22.45-.92,1.09-1.65,1.91-2.2s2.13-1.03,3.94-1.46c2.19-.51,3.71-.98,4.57-1.42,0-1.21-.09-2-.26-2.38s-.49-.69-.94-.93c-.46-.24-1.1-.36-1.94-.36s-1.51.19-2,.57-.88,1.1-1.18,2.15ZM149.15,1372.15c-.6.25-1.54.54-2.81.86-1.46.38-2.42.81-2.87,1.28-.45.47-.68,1.07-.68,1.81,0,.84.25,1.54.75,2.11s1.12.85,1.88.85c.67,0,1.33-.23,1.99-.69.66-.46,1.11-1,1.36-1.64s.38-1.78.38-3.43v-1.15Z"/>
      <path class="cls-3" d="M158.46,1382.61v-30.06h4.74v30.06h-4.74Z"/>
      <path class="cls-3" d="M167.67,1360.83h4.35v2.97c.78-1.16,1.63-2.03,2.56-2.61s1.93-.87,3.01-.87c1.15,0,2.14.29,2.98.86s1.53,1.44,2.06,2.6c.79-1.16,1.64-2.03,2.55-2.6s1.88-.86,2.9-.86c1.22,0,2.27.29,3.15.87.88.58,1.55,1.41,2.01,2.49s.69,2.74.69,4.99v13.94h-4.74v-12.46c0-2.18-.19-3.62-.57-4.34s-1.03-1.08-1.93-1.08c-1.05,0-1.9.5-2.54,1.51-.64,1.01-.96,2.97-.96,5.9v10.47h-4.74v-11.95c0-2.37-.13-3.89-.39-4.58-.34-.9-1.03-1.36-2.07-1.36-.7,0-1.34.23-1.93.7s-1.01,1.15-1.27,2.04-.39,2.41-.39,4.55v10.59h-4.74v-21.78Z"/>
      <path class="cls-3" d="M209.04,1375.7l4.7.96c-.63,2.19-1.61,3.81-2.94,4.87-1.33,1.06-2.94,1.59-4.85,1.59-2.64,0-4.68-.88-6.12-2.65-1.7-2.05-2.55-4.93-2.55-8.63s.85-6.56,2.56-8.75c1.45-1.85,3.32-2.77,5.62-2.77,2.56,0,4.56.95,6.01,2.83,1.67,2.16,2.5,5.35,2.5,9.57l-.02.66h-11.83c.03,1.73.41,3.07,1.16,4.01.75.95,1.65,1.42,2.71,1.42,1.52,0,2.54-1.04,3.04-3.12ZM209.28,1369.85c-.04-1.7-.4-2.98-1.09-3.84-.68-.86-1.5-1.29-2.44-1.29-1,0-1.84.45-2.52,1.34-.7.91-1.04,2.17-1.03,3.79h7.08Z"/>
      <path class="cls-3" d="M234.1,1382.61h-4.74v-11.13c0-2.23-.09-3.72-.27-4.46s-.51-1.31-.99-1.7c-.49-.4-1.04-.6-1.65-.6-.79,0-1.51.26-2.15.77-.64.51-1.09,1.22-1.35,2.13s-.39,2.61-.39,5.11v9.88h-4.74v-21.78h4.39v3.18c.78-1.23,1.66-2.15,2.64-2.77s2.06-.92,3.25-.92c1.38,0,2.55.36,3.5,1.08.95.72,1.61,1.64,1.97,2.77s.54,2.76.54,4.9v13.55Z"/>
      <path class="cls-3" d="M247.06,1360.83v4.59h-3.22v8.79c0,1.9.05,3.01.14,3.31.19.55.58.82,1.17.82.44,0,1.07-.18,1.89-.55l.41,4.47c-1.09.57-2.33.86-3.71.86-1.2,0-2.17-.29-2.89-.86s-1.21-1.4-1.46-2.48c-.19-.79-.29-2.41-.29-4.85v-9.51h-2.17v-4.59h2.17v-4.33l4.74-3.36v7.69h3.22Z"/>
      <path class="cls-3" d="M260.74,1375.7l4.7.96c-.63,2.19-1.61,3.81-2.94,4.87-1.33,1.06-2.94,1.59-4.85,1.59-2.64,0-4.68-.88-6.12-2.65-1.7-2.05-2.55-4.93-2.55-8.63s.85-6.56,2.56-8.75c1.45-1.85,3.32-2.77,5.62-2.77,2.56,0,4.56.95,6.01,2.83,1.67,2.16,2.5,5.35,2.5,9.57l-.02.66h-11.83c.03,1.73.41,3.07,1.16,4.01.75.95,1.65,1.42,2.71,1.42,1.52,0,2.54-1.04,3.04-3.12ZM260.98,1369.85c-.04-1.7-.4-2.98-1.09-3.84-.68-.86-1.5-1.29-2.44-1.29-1,0-1.84.45-2.52,1.34-.7.91-1.04,2.17-1.03,3.79h7.08Z"/>
    </g>
    <g>
      <path class="cls-3" d="M3533.7,163.21l6.49-.77c.73,5.13,3.12,7.69,7.17,7.69,2.01,0,3.59-.52,4.74-1.57,1.15-1.05,1.72-2.35,1.72-3.9,0-.91-.2-1.69-.6-2.33-.4-.64-1.01-1.16-1.83-1.57s-2.81-1.1-5.97-2.06c-2.83-.86-4.9-1.79-6.21-2.79-1.31-1-2.36-2.32-3.13-3.95-.78-1.63-1.16-3.39-1.16-5.27,0-2.19.5-4.16,1.49-5.91.99-1.75,2.37-3.07,4.12-3.97s3.91-1.34,6.49-1.34c3.87,0,6.89,1.05,9.06,3.15s3.32,5.1,3.45,9.01l-6.65.36c-.29-2.15-.92-3.66-1.89-4.52-.97-.86-2.34-1.29-4.13-1.29s-3.17.37-4.13,1.12c-.97.75-1.45,1.67-1.45,2.78s.44,2.01,1.32,2.76,2.9,1.57,6.05,2.46c3.34.97,5.75,1.99,7.24,3.05,1.49,1.07,2.62,2.45,3.41,4.13.79,1.69,1.18,3.74,1.18,6.14,0,3.49-1.07,6.41-3.22,8.79s-5.5,3.56-10.06,3.56c-8.07,0-12.56-4.59-13.47-13.77Z"/>
      <path class="cls-3" d="M3566.06,176.3v-40.13h24.42v6.79h-17.79v8.9h16.53v6.76h-16.53v10.9h18.4v6.79h-25.02Z"/>
      <path class="cls-3" d="M3593.38,176.3l11.38-20.89-10.33-19.24h7.76l6.52,12.01,6.55-12.01h7.69l-10.33,19.2,11.37,20.93h-8.01l-7.3-13.6-7.32,13.6h-7.97Z"/>
      <path class="cls-3" d="M3634.6,176.3v-33.34h-9.77v-6.79h26.14v6.79h-9.75v33.34h-6.62Z"/>
      <path class="cls-3" d="M3653.93,156.48c0-4.78.71-8.72,2.12-11.81,1.41-3.09,3.26-5.4,5.54-6.91,2.28-1.51,5.05-2.27,8.29-2.27,4.71,0,8.54,1.8,11.51,5.39,2.97,3.6,4.45,8.71,4.45,15.36s-1.57,11.96-4.71,15.74c-2.76,3.34-6.5,5.01-11.22,5.01s-8.52-1.65-11.28-4.96c-3.14-3.78-4.71-8.96-4.71-15.55ZM3660.77,156.2c0,4.62.88,8.08,2.63,10.39,1.75,2.31,3.93,3.46,6.53,3.46s4.78-1.15,6.5-3.44c1.72-2.29,2.58-5.81,2.58-10.55s-.84-8.09-2.51-10.32c-1.67-2.23-3.86-3.34-6.57-3.34s-4.91,1.12-6.61,3.37c-1.7,2.24-2.55,5.72-2.55,10.43Z"/>
    </g>
    <g>
      <path class="cls-3" d="M113.21,1590.14l4.82,1.87c-.75,3.36-2,5.82-3.75,7.37s-3.9,2.33-6.46,2.33c-3.21,0-5.82-1.24-7.81-3.71-2.3-2.86-3.45-6.71-3.45-11.57,0-5.13,1.16-9.14,3.47-12.04,2.01-2.52,4.71-3.77,8.11-3.77,2.76,0,5.08.94,6.94,2.83,1.33,1.34,2.3,3.33,2.92,5.97l-4.92,1.44c-.32-1.63-.94-2.87-1.88-3.74-.94-.87-2.04-1.3-3.32-1.3-1.82,0-3.31.79-4.46,2.38s-1.73,4.2-1.73,7.85.56,6.48,1.68,8.08,2.58,2.4,4.37,2.4c1.31,0,2.45-.51,3.4-1.53s1.65-2.64,2.07-4.85Z"/>
      <path class="cls-3" d="M125.78,1586.04l-4.29-.94c.52-2.2,1.38-3.78,2.57-4.75,1.2-.96,2.92-1.45,5.16-1.45,2,0,3.52.28,4.57.84s1.8,1.32,2.26,2.29c.45.96.68,2.72.68,5.27l-.04,6.73c0,1.89.08,3.29.23,4.22s.43,1.91.84,2.95h-4.68l-.62-2.38c-.81.96-1.67,1.68-2.59,2.16-.92.48-1.9.73-2.94.73-1.74,0-3.16-.58-4.27-1.76-1.11-1.17-1.66-2.73-1.66-4.67,0-1.23.23-2.31.68-3.22.45-.92,1.09-1.65,1.91-2.2s2.13-1.03,3.94-1.46c2.19-.51,3.71-.98,4.57-1.42,0-1.21-.09-2-.26-2.38s-.49-.69-.94-.93c-.46-.24-1.1-.36-1.94-.36s-1.51.19-2,.57-.88,1.1-1.18,2.15ZM132.1,1590.74c-.6.25-1.54.54-2.81.86-1.46.38-2.42.81-2.87,1.28-.45.47-.68,1.07-.68,1.81,0,.84.25,1.54.75,2.11s1.12.85,1.88.85c.67,0,1.33-.23,1.99-.69.66-.46,1.11-1,1.36-1.64s.38-1.78.38-3.43v-1.15Z"/>
      <path class="cls-3" d="M141.41,1601.2v-30.06h4.74v30.06h-4.74Z"/>
      <path class="cls-3" d="M166.57,1585.84l-4.66,1.03c-.34-2.28-1.42-3.42-3.24-3.42-1.17,0-2.11.49-2.83,1.48-.71.99-1.07,2.65-1.07,5,0,2.59.36,4.42,1.07,5.49s1.67,1.6,2.86,1.6c.89,0,1.62-.3,2.2-.91s.99-1.69,1.23-3.23l4.66.96c-.96,5.25-3.71,7.88-8.26,7.88-2.91,0-5.07-1.11-6.48-3.33s-2.11-4.89-2.11-8.01c0-3.74.8-6.58,2.39-8.54,1.59-1.95,3.69-2.93,6.27-2.93,2.09,0,3.8.55,5.12,1.66,1.32,1.11,2.27,2.86,2.84,5.27Z"/>
      <path class="cls-3" d="M181.85,1601.2v-3.26c-.66,1.18-1.52,2.11-2.58,2.77s-2.18,1-3.34,1-2.22-.31-3.15-.92c-.93-.62-1.62-1.49-2.08-2.63-.46-1.14-.69-2.79-.69-4.95v-13.79h4.74v10.01c0,2.86.07,4.67.21,5.45.14.77.46,1.37.95,1.79.49.42,1.08.64,1.78.64.79,0,1.52-.28,2.19-.83.67-.55,1.11-1.26,1.32-2.13.21-.87.32-2.78.32-5.73v-9.19h4.74v21.78h-4.41Z"/>
      <path class="cls-3" d="M191.18,1601.2v-30.06h4.74v30.06h-4.74Z"/>
      <path class="cls-3" d="M204.29,1586.04l-4.29-.94c.52-2.2,1.38-3.78,2.57-4.75,1.2-.96,2.92-1.45,5.16-1.45,2,0,3.52.28,4.57.84s1.8,1.32,2.26,2.29c.45.96.68,2.72.68,5.27l-.04,6.73c0,1.89.08,3.29.23,4.22s.43,1.91.84,2.95h-4.68l-.62-2.38c-.81.96-1.67,1.68-2.59,2.16-.92.48-1.9.73-2.94.73-1.74,0-3.16-.58-4.27-1.76-1.11-1.17-1.66-2.73-1.66-4.67,0-1.23.23-2.31.68-3.22.45-.92,1.09-1.65,1.91-2.2s2.13-1.03,3.94-1.46c2.19-.51,3.71-.98,4.57-1.42,0-1.21-.09-2-.26-2.38s-.49-.69-.94-.93c-.46-.24-1.1-.36-1.94-.36s-1.51.19-2,.57-.88,1.1-1.18,2.15ZM210.6,1590.74c-.6.25-1.54.54-2.81.86-1.46.38-2.42.81-2.87,1.28-.45.47-.68,1.07-.68,1.81,0,.84.25,1.54.75,2.11s1.12.85,1.88.85c.67,0,1.33-.23,1.99-.69.66-.46,1.11-1,1.36-1.64s.38-1.78.38-3.43v-1.15Z"/>
      <path class="cls-3" d="M224.49,1601.2h-4.74v-21.78h4.39v3.1c.75-1.45,1.43-2.41,2.02-2.89s1.28-.72,2.06-.72c1.08,0,2.11.36,3.1,1.09l-1.48,5.02c-.78-.63-1.52-.94-2.21-.94-.66,0-1.23.24-1.73.73-.5.49-.86,1.37-1.08,2.64-.22,1.27-.33,3.61-.33,7.02v6.73Z"/>
    </g>
    <g>
      <path class="cls-3" d="M95.65,1651.72h-4.39v-3.2c-.72,1.23-1.58,2.16-2.56,2.78-.98.62-2,.93-3.04.93-2,0-3.74-1-5.22-2.99s-2.23-4.84-2.23-8.54.72-6.54,2.17-8.43c1.45-1.9,3.23-2.85,5.34-2.85,1,0,1.93.25,2.79.76.87.51,1.66,1.26,2.39,2.28v-10.81h4.74v30.06ZM83.05,1640.35c0,1.97.17,3.45.5,4.41s.81,1.69,1.43,2.18c.62.49,1.32.73,2.1.73,1.04,0,1.94-.56,2.7-1.69.76-1.12,1.15-2.82,1.15-5.08,0-2.51-.37-4.32-1.12-5.42-.74-1.1-1.69-1.66-2.83-1.66s-2.02.54-2.78,1.62c-.76,1.08-1.15,2.71-1.15,4.9Z"/>
      <path class="cls-3" d="M110.7,1644.81l4.7.96c-.63,2.19-1.61,3.81-2.94,4.87-1.33,1.06-2.94,1.59-4.85,1.59-2.64,0-4.68-.88-6.12-2.65-1.7-2.05-2.55-4.93-2.55-8.63s.85-6.56,2.56-8.75c1.45-1.85,3.32-2.77,5.62-2.77,2.56,0,4.56.95,6.01,2.83,1.67,2.16,2.5,5.35,2.5,9.57l-.02.66h-11.83c.03,1.73.41,3.07,1.16,4.01.75.95,1.65,1.42,2.71,1.42,1.52,0,2.54-1.04,3.04-3.12ZM110.95,1638.96c-.04-1.7-.4-2.98-1.09-3.84-.68-.86-1.5-1.29-2.44-1.29-1,0-1.84.45-2.52,1.34-.7.91-1.04,2.17-1.03,3.79h7.08Z"/>
      <path class="cls-3" d="M128.68,1629.94h4.35v2.97c.78-1.16,1.63-2.03,2.56-2.61s1.93-.87,3.01-.87c1.15,0,2.14.29,2.98.86s1.53,1.44,2.06,2.6c.79-1.16,1.64-2.03,2.55-2.6s1.88-.86,2.9-.86c1.22,0,2.27.29,3.15.87.88.58,1.55,1.41,2.01,2.49s.69,2.74.69,4.99v13.94h-4.74v-12.46c0-2.18-.19-3.62-.57-4.34s-1.03-1.08-1.93-1.08c-1.05,0-1.9.5-2.54,1.51-.64,1.01-.96,2.97-.96,5.9v10.47h-4.74v-11.95c0-2.37-.13-3.89-.39-4.58-.34-.9-1.03-1.36-2.07-1.36-.7,0-1.34.23-1.93.7s-1.01,1.15-1.27,2.04-.39,2.41-.39,4.55v10.59h-4.74v-21.78Z"/>
      <path class="cls-3" d="M163.2,1636.56l-4.29-.94c.52-2.2,1.38-3.78,2.57-4.75,1.2-.96,2.92-1.45,5.16-1.45,2,0,3.52.28,4.57.84s1.8,1.32,2.26,2.29c.45.96.68,2.72.68,5.27l-.04,6.73c0,1.89.08,3.29.23,4.22s.43,1.91.84,2.95h-4.68l-.62-2.38c-.81.96-1.67,1.68-2.59,2.16-.92.48-1.9.73-2.94.73-1.74,0-3.16-.58-4.27-1.76-1.11-1.17-1.66-2.73-1.66-4.67,0-1.23.23-2.31.68-3.22.45-.92,1.09-1.65,1.91-2.2s2.13-1.03,3.94-1.46c2.19-.51,3.71-.98,4.57-1.42,0-1.21-.09-2-.26-2.38s-.49-.69-.94-.93c-.46-.24-1.1-.36-1.94-.36s-1.51.19-2,.57-.88,1.1-1.18,2.15ZM169.52,1641.26c-.6.25-1.54.54-2.81.86-1.46.38-2.42.81-2.87,1.28-.45.47-.68,1.07-.68,1.81,0,.84.25,1.54.75,2.11s1.12.85,1.88.85c.67,0,1.33-.23,1.99-.69.66-.46,1.11-1,1.36-1.64s.38-1.78.38-3.43v-1.15Z"/>
      <path class="cls-3" d="M195.07,1651.72h-4.74v-11.13c0-2.23-.09-3.72-.27-4.46s-.51-1.31-.99-1.7c-.49-.4-1.04-.6-1.65-.6-.79,0-1.51.26-2.15.77-.64.51-1.09,1.22-1.35,2.13s-.39,2.61-.39,5.11v9.88h-4.74v-21.78h4.39v3.18c.78-1.23,1.66-2.15,2.64-2.77s2.06-.92,3.25-.92c1.38,0,2.55.36,3.5,1.08.95.72,1.61,1.64,1.97,2.77s.54,2.76.54,4.9v13.55Z"/>
      <path class="cls-3" d="M210.24,1644.81l4.7.96c-.63,2.19-1.61,3.81-2.94,4.87-1.33,1.06-2.94,1.59-4.85,1.59-2.64,0-4.68-.88-6.12-2.65-1.7-2.05-2.55-4.93-2.55-8.63s.85-6.56,2.56-8.75c1.45-1.85,3.32-2.77,5.62-2.77,2.56,0,4.56.95,6.01,2.83,1.67,2.16,2.5,5.35,2.5,9.57l-.02.66h-11.83c.03,1.73.41,3.07,1.16,4.01.75.95,1.65,1.42,2.71,1.42,1.52,0,2.54-1.04,3.04-3.12ZM210.49,1638.96c-.04-1.7-.4-2.98-1.09-3.84-.68-.86-1.5-1.29-2.44-1.29-1,0-1.84.45-2.52,1.34-.7.91-1.04,2.17-1.03,3.79h7.08Z"/>
      <path class="cls-3" d="M223.55,1651.72h-4.74v-21.78h4.39v3.1c.75-1.45,1.43-2.41,2.02-2.89s1.28-.72,2.06-.72c1.08,0,2.11.36,3.1,1.09l-1.48,5.02c-.78-.63-1.52-.94-2.21-.94-.66,0-1.23.24-1.73.73-.5.49-.86,1.37-1.08,2.64-.22,1.27-.33,3.61-.33,7.02v6.73Z"/>
      <path class="cls-3" d="M235.94,1636.56l-4.29-.94c.52-2.2,1.38-3.78,2.57-4.75,1.2-.96,2.92-1.45,5.16-1.45,2,0,3.52.28,4.57.84s1.8,1.32,2.26,2.29c.45.96.68,2.72.68,5.27l-.04,6.73c0,1.89.08,3.29.23,4.22s.43,1.91.84,2.95h-4.68l-.62-2.38c-.81.96-1.67,1.68-2.59,2.16-.92.48-1.9.73-2.94.73-1.74,0-3.16-.58-4.27-1.76-1.11-1.17-1.66-2.73-1.66-4.67,0-1.23.23-2.31.68-3.22.45-.92,1.09-1.65,1.91-2.2s2.13-1.03,3.94-1.46c2.19-.51,3.71-.98,4.57-1.42,0-1.21-.09-2-.26-2.38s-.49-.69-.94-.93c-.46-.24-1.1-.36-1.94-.36s-1.51.19-2,.57-.88,1.1-1.18,2.15ZM242.26,1641.26c-.6.25-1.54.54-2.81.86-1.46.38-2.42.81-2.87,1.28-.45.47-.68,1.07-.68,1.81,0,.84.25,1.54.75,2.11s1.12.85,1.88.85c.67,0,1.33-.23,1.99-.69.66-.46,1.11-1,1.36-1.64s.38-1.78.38-3.43v-1.15Z"/>
    </g>
    <g>
      <path class="cls-3" d="M120.14,1695.09l4.7.96c-.63,2.19-1.61,3.81-2.94,4.87-1.33,1.06-2.94,1.59-4.85,1.59-2.64,0-4.68-.88-6.12-2.65-1.7-2.05-2.55-4.93-2.55-8.63s.85-6.56,2.56-8.75c1.45-1.85,3.32-2.77,5.62-2.77,2.56,0,4.56.95,6.01,2.83,1.67,2.16,2.5,5.35,2.5,9.57l-.02.66h-11.83c.03,1.73.41,3.07,1.16,4.01.75.95,1.65,1.42,2.71,1.42,1.52,0,2.54-1.04,3.04-3.12ZM120.38,1689.24c-.04-1.7-.4-2.98-1.09-3.84-.68-.86-1.5-1.29-2.44-1.29-1,0-1.84.45-2.52,1.34-.7.91-1.04,2.17-1.03,3.79h7.08Z"/>
      <path class="cls-3" d="M127.25,1695.8l4.74-.88c.41,2.28,1.68,3.42,3.81,3.42,1.13,0,1.98-.22,2.54-.66.56-.44.84-1.01.84-1.7,0-.48-.12-.86-.37-1.13-.26-.27-.77-.51-1.54-.72-3.88-1.03-6.35-2.01-7.4-2.95-1.31-1.17-1.97-2.76-1.97-4.79s.64-3.65,1.93-4.87,3.15-1.83,5.6-1.83,4.12.46,5.33,1.36,2.07,2.38,2.56,4.4l-4.45,1c-.4-1.75-1.52-2.62-3.36-2.62-1.16,0-1.99.17-2.48.5s-.74.77-.74,1.3c0,.48.23.88.68,1.19.45.33,1.85.83,4.2,1.49,2.64.75,4.43,1.65,5.37,2.7.93,1.05,1.4,2.46,1.4,4.21,0,2.11-.72,3.84-2.16,5.21s-3.44,2.05-5.98,2.05c-2.31,0-4.2-.57-5.66-1.71s-2.43-2.81-2.89-4.99Z"/>
      <path class="cls-3" d="M163.66,1686.64l-4.66,1.03c-.34-2.28-1.42-3.42-3.24-3.42-1.17,0-2.11.49-2.83,1.48-.71.99-1.07,2.65-1.07,5,0,2.59.36,4.42,1.07,5.49s1.67,1.6,2.86,1.6c.89,0,1.62-.3,2.2-.91s.99-1.69,1.23-3.23l4.66.96c-.96,5.25-3.71,7.88-8.26,7.88-2.91,0-5.07-1.11-6.48-3.33s-2.11-4.89-2.11-8.01c0-3.74.8-6.58,2.39-8.54,1.59-1.95,3.69-2.93,6.27-2.93,2.09,0,3.8.55,5.12,1.66,1.32,1.11,2.27,2.86,2.84,5.27Z"/>
      <path class="cls-3" d="M171.8,1702h-4.74v-21.78h4.39v3.1c.75-1.45,1.43-2.41,2.02-2.89s1.28-.72,2.06-.72c1.08,0,2.11.36,3.1,1.09l-1.48,5.02c-.78-.63-1.52-.94-2.21-.94-.66,0-1.23.24-1.73.73-.5.49-.86,1.37-1.08,2.64-.22,1.27-.33,3.61-.33,7.02v6.73Z"/>
      <path class="cls-3" d="M180.66,1677.27v-5.33h4.74v5.33h-4.74ZM180.66,1702v-21.78h4.74v21.78h-4.74Z"/>
      <path class="cls-3" d="M198.4,1680.22v4.59h-3.22v8.79c0,1.9.05,3.01.14,3.31.19.55.58.82,1.17.82.44,0,1.07-.18,1.89-.55l.41,4.47c-1.09.57-2.33.86-3.71.86-1.2,0-2.17-.29-2.89-.86s-1.21-1.4-1.46-2.48c-.19-.79-.29-2.41-.29-4.85v-9.51h-2.17v-4.59h2.17v-4.33l4.74-3.36v7.69h3.22Z"/>
      <path class="cls-3" d="M205.23,1686.84l-4.29-.94c.52-2.2,1.38-3.78,2.57-4.75,1.2-.96,2.92-1.45,5.16-1.45,2,0,3.52.28,4.57.84s1.8,1.32,2.26,2.29c.45.96.68,2.72.68,5.27l-.04,6.73c0,1.89.08,3.29.23,4.22s.43,1.91.84,2.95h-4.68l-.62-2.38c-.81.96-1.67,1.68-2.59,2.16-.92.48-1.9.73-2.94.73-1.74,0-3.16-.58-4.27-1.76-1.11-1.17-1.66-2.73-1.66-4.67,0-1.23.23-2.31.68-3.22.45-.92,1.09-1.65,1.91-2.2s2.13-1.03,3.94-1.46c2.19-.51,3.71-.98,4.57-1.42,0-1.21-.09-2-.26-2.38s-.49-.69-.94-.93c-.46-.24-1.1-.36-1.94-.36s-1.51.19-2,.57-.88,1.1-1.18,2.15ZM211.54,1691.54c-.6.25-1.54.54-2.81.86-1.46.38-2.42.81-2.87,1.28-.45.47-.68,1.07-.68,1.81,0,.84.25,1.54.75,2.11s1.12.85,1.88.85c.67,0,1.33-.23,1.99-.69.66-.46,1.11-1,1.36-1.64s.38-1.78.38-3.43v-1.15Z"/>
    </g>
    <g>
      <path class="cls-4" d="M544.08,86.13V18.35h23.62c6.04,0,10.36.61,12.94,1.83,2.59,1.22,4.72,3.33,6.38,6.33,1.66,3,2.5,6.6,2.5,10.79,0,5.3-1.27,9.57-3.81,12.81-2.54,3.24-6.16,5.27-10.84,6.1,2.4,1.73,4.39,3.61,5.96,5.66,1.57,2.05,3.71,5.73,6.43,11.03l6.75,13.22h-13.39l-8.12-14.75c-2.92-5.33-4.91-8.67-5.96-10.01-1.05-1.34-2.16-2.27-3.33-2.77-1.17-.51-3.05-.76-5.64-.76h-2.31v28.29h-11.19ZM555.26,47.02h8.32c5.08,0,8.32-.22,9.71-.67,1.39-.45,2.51-1.35,3.38-2.7.86-1.36,1.29-3.16,1.29-5.41s-.43-3.89-1.29-5.2c-.86-1.31-2.03-2.21-3.51-2.7-1.05-.34-4.08-.51-9.11-.51h-8.78v17.2Z"/>
      <path class="cls-4" d="M600.11,86.13V18.35h41.24v11.47h-30.05v15.02h27.92v11.42h-27.92v18.4h31.07v11.47h-42.25Z"/>
      <path class="cls-4" d="M651.79,18.35h20.46c5.17,0,9.07.58,11.71,1.73s5.06,3.1,7.27,5.85c2.22,2.74,3.96,6.3,5.22,10.68,1.26,4.38,1.89,9.82,1.89,16.32,0,5.86-.66,10.95-1.99,15.28-1.32,4.33-3,7.76-5.03,10.29-2.03,2.53-4.49,4.43-7.37,5.71-2.88,1.28-6.58,1.92-11.11,1.92h-21.06V18.35ZM662.98,29.82v44.84h8.41c3.61,0,6.22-.34,7.84-1.02,1.62-.68,2.94-1.7,3.98-3.07,1.03-1.37,1.89-3.53,2.57-6.49.68-2.96,1.02-6.85,1.02-11.68s-.35-8.97-1.04-11.87c-.69-2.89-1.77-5.17-3.24-6.83-1.46-1.66-3.24-2.76-5.34-3.28-1.57-.4-4.61-.6-9.11-.6h-5.09Z"/>
      <path class="cls-4" d="M772.69,86.13V18.35h41.24v11.47h-30.05v15.02h27.92v11.42h-27.92v18.4h31.07v11.47h-42.25Z"/>
      <path class="cls-4" d="M838.66,86.13l-19.88-67.77h12.16l14.08,50.16,13.61-50.16h11.93l-19.93,67.77h-11.97Z"/>
      <path class="cls-4" d="M873.93,52.66c0-8.07,1.19-14.72,3.58-19.95,2.39-5.22,5.51-9.11,9.36-11.67,3.85-2.56,8.52-3.84,14.01-3.84,7.95,0,14.43,3.04,19.44,9.11,5.01,6.07,7.51,14.72,7.51,25.94s-2.65,20.2-7.95,26.58c-4.65,5.64-10.97,8.46-18.95,8.46s-14.39-2.79-19.05-8.37c-5.3-6.38-7.95-15.13-7.95-26.26ZM885.49,52.19c0,7.8,1.48,13.65,4.44,17.54,2.96,3.9,6.64,5.85,11.02,5.85s8.07-1.93,10.97-5.8c2.9-3.87,4.35-9.81,4.35-17.82s-1.41-13.67-4.24-17.43c-2.82-3.76-6.52-5.64-11.09-5.64s-8.29,1.9-11.16,5.69-4.31,9.66-4.31,17.61Z"/>
      <path class="cls-4" d="M936.94,86.13V18.91h11.19v55.75h27.92v11.47h-39.11Z"/>
      <path class="cls-4" d="M983.96,18.35h11.19v36.71c0,5.7.14,9.42.42,11.14.49,2.99,1.67,5.3,3.54,6.93,1.87,1.63,4.33,2.45,7.39,2.45,2.59,0,4.71-.58,6.35-1.73,1.64-1.16,2.76-2.76,3.36-4.81.6-2.05.9-6.45.9-13.2V18.35h11.19v35.6c0,9.09-.49,15.66-1.46,19.72-.97,4.05-3.16,7.34-6.56,9.85-3.41,2.51-7.9,3.77-13.48,3.77s-10.32-1.04-13.57-3.12c-3.25-2.08-5.61-5.01-7.07-8.78-1.46-3.77-2.2-10.73-2.2-20.87V18.35Z"/>
      <path class="cls-4" d="M1052.61,86.13V29.82h-16.5v-11.47h44.15v11.47h-16.46v56.31h-11.19Z"/>
      <path class="cls-4" d="M1087.19,86.13V18.35h11.19v67.77h-11.19Z"/>
      <path class="cls-4" d="M1123.35,86.13l-19.88-67.77h12.16l14.08,50.16,13.61-50.16h11.93l-19.93,67.77h-11.97Z"/>
      <path class="cls-4" d="M1211.04,86.13h-12.16l-4.87-15.35h-22.25l-4.6,15.35h-11.93l21.64-67.77h11.88l22.28,67.77ZM1190.4,59.31l-7.67-25.15-7.53,25.15h15.2Z"/>
      <path class="cls-4" d="M1281.26,18.35h20.46c5.17,0,9.07.58,11.71,1.73s5.06,3.1,7.27,5.85c2.22,2.74,3.96,6.3,5.22,10.68,1.26,4.38,1.89,9.82,1.89,16.32,0,5.86-.66,10.95-1.99,15.28-1.32,4.33-3,7.76-5.03,10.29-2.03,2.53-4.49,4.43-7.37,5.71-2.88,1.28-6.58,1.92-11.11,1.92h-21.06V18.35ZM1292.45,29.82v44.84h8.41c3.61,0,6.22-.34,7.84-1.02,1.62-.68,2.94-1.7,3.98-3.07,1.03-1.37,1.89-3.53,2.57-6.49.68-2.96,1.02-6.85,1.02-11.68s-.35-8.97-1.04-11.87c-.69-2.89-1.77-5.17-3.24-6.83-1.46-1.66-3.24-2.76-5.34-3.28-1.57-.4-4.61-.6-9.11-.6h-5.09Z"/>
      <path class="cls-4" d="M1337.38,86.13V18.35h41.24v11.47h-30.05v15.02h27.92v11.42h-27.92v18.4h31.07v11.47h-42.25Z"/>
      <path class="cls-4" d="M1504.04,86.13h-12.16l-4.87-15.35h-22.25l-4.6,15.35h-11.93l21.64-67.77h11.88l22.28,67.77ZM1483.4,59.31l-7.67-25.15-7.53,25.15h15.2Z"/>
      <path class="cls-4" d="M1509.91,86.13V18.35h18.03c6.72,0,11.11.32,13.18.97,3.3,1.05,6.02,3.28,8.16,6.7,2.14,3.42,3.21,7.83,3.21,13.22,0,4.9-.92,9.01-2.77,12.32-1.85,3.31-4.16,5.64-6.93,6.98-2.77,1.34-7.55,2.01-14.33,2.01h-7.35v25.57h-11.19ZM1521.1,29.82v19.28h6.21c4.17,0,7-.29,8.5-.88,1.5-.59,2.73-1.65,3.68-3.17.96-1.53,1.44-3.41,1.44-5.63s-.49-4.16-1.48-5.7c-.99-1.54-2.21-2.58-3.66-3.1-1.45-.53-4.53-.79-9.22-.79h-5.47Z"/>
      <path class="cls-4" d="M1561.74,86.13V18.35h23.62c6.04,0,10.36.61,12.94,1.83,2.59,1.22,4.72,3.33,6.38,6.33,1.66,3,2.5,6.6,2.5,10.79,0,5.3-1.27,9.57-3.81,12.81-2.54,3.24-6.16,5.27-10.84,6.1,2.4,1.73,4.39,3.61,5.96,5.66,1.57,2.05,3.71,5.73,6.43,11.03l6.75,13.22h-13.39l-8.12-14.75c-2.92-5.33-4.91-8.67-5.96-10.01-1.05-1.34-2.16-2.27-3.33-2.77-1.17-.51-3.05-.76-5.64-.76h-2.31v28.29h-11.19ZM1572.93,47.02h8.32c5.08,0,8.32-.22,9.71-.67,1.39-.45,2.51-1.35,3.38-2.7.86-1.36,1.29-3.16,1.29-5.41s-.43-3.89-1.29-5.2c-.86-1.31-2.03-2.21-3.51-2.7-1.05-.34-4.08-.51-9.11-.51h-8.78v17.2Z"/>
      <path class="cls-4" d="M1617.77,86.13V18.35h41.24v11.47h-30.05v15.02h27.92v11.42h-27.92v18.4h31.07v11.47h-42.25Z"/>
      <path class="cls-4" d="M1669.64,86.13V18.35h10.91l22.75,45.26V18.35h10.45v67.77h-11.28l-22.38-44.2v44.2h-10.45Z"/>
      <path class="cls-4" d="M1725.49,18.35h20.46c5.17,0,9.07.58,11.71,1.73s5.06,3.1,7.27,5.85c2.22,2.74,3.96,6.3,5.22,10.68,1.26,4.38,1.89,9.82,1.89,16.32,0,5.86-.66,10.95-1.99,15.28-1.32,4.33-3,7.76-5.03,10.29-2.03,2.53-4.49,4.43-7.37,5.71-2.88,1.28-6.58,1.92-11.11,1.92h-21.06V18.35ZM1736.67,29.82v44.84h8.41c3.61,0,6.22-.34,7.84-1.02,1.62-.68,2.94-1.7,3.98-3.07,1.03-1.37,1.89-3.53,2.57-6.49.68-2.96,1.02-6.85,1.02-11.68s-.35-8.97-1.04-11.87c-.69-2.89-1.77-5.17-3.24-6.83-1.46-1.66-3.24-2.76-5.34-3.28-1.57-.4-4.61-.6-9.11-.6h-5.09Z"/>
      <path class="cls-4" d="M1781.24,86.13V18.35h11.19v67.77h-11.19Z"/>
      <path class="cls-4" d="M1798.35,86.13v-12.39l29.19-43.92h-25.91v-11.47h40.68v10.63l-30.42,45.68h31.62v11.47h-45.17Z"/>
      <path class="cls-4" d="M1900.75,86.13h-12.16l-4.87-15.35h-22.25l-4.6,15.35h-11.93l21.64-67.77h11.88l22.28,67.77ZM1880.1,59.31l-7.67-25.15-7.53,25.15h15.2Z"/>
      <path class="cls-4" d="M1926.73,18.35h11.19v42.9c0,6.93-.69,12.1-2.08,15.49-1.39,3.39-3.46,5.99-6.22,7.81-2.76,1.82-6.16,2.73-10.19,2.73-5.33,0-9.51-1.83-12.53-5.5-3.02-3.67-4.55-9.2-4.58-16.6l10.59-1.48c.12,3.98.63,6.8,1.53,8.46,1.21,2.28,3.01,3.42,5.43,3.42s4.08-.82,5.19-2.47c1.11-1.65,1.67-5.31,1.67-10.98V18.35Z"/>
      <path class="cls-4" d="M1949.84,86.13V18.35h41.24v11.47h-30.05v15.02h27.92v11.42h-27.92v18.4h31.07v11.47h-42.25Z"/>
      <path class="cls-4" d="M1998.76,64.03l10.96-1.29c1.23,8.66,5.27,12.99,12.11,12.99,3.39,0,6.06-.89,8-2.66,1.94-1.77,2.91-3.97,2.91-6.59,0-1.54-.34-2.85-1.02-3.93-.68-1.08-1.71-1.96-3.1-2.66-1.39-.69-4.75-1.85-10.08-3.49-4.78-1.45-8.27-3.01-10.49-4.71-2.22-1.69-3.98-3.92-5.29-6.67-1.31-2.76-1.96-5.72-1.96-8.89,0-3.7.84-7.02,2.52-9.98,1.68-2.96,4-5.19,6.96-6.7,2.96-1.51,6.61-2.26,10.96-2.26,6.53,0,11.63,1.77,15.3,5.32,3.67,3.54,5.61,8.61,5.82,15.21l-11.23.6c-.49-3.64-1.56-6.18-3.19-7.63-1.63-1.45-3.96-2.17-6.98-2.17s-5.35.63-6.98,1.89c-1.63,1.26-2.45,2.83-2.45,4.7s.74,3.4,2.22,4.65c1.48,1.26,4.89,2.65,10.22,4.16,5.64,1.63,9.71,3.35,12.22,5.16,2.51,1.8,4.43,4.13,5.75,6.98s1.99,6.31,1.99,10.38c0,5.89-1.81,10.83-5.43,14.84-3.62,4.01-9.28,6.01-16.99,6.01-13.62,0-21.2-7.75-22.75-23.25Z"/>
      <path class="cls-4" d="M2117.7,86.13V18.35h16.78l10.1,46.28,10.02-46.28h16.86v67.77h-10.45v-53.4l-11.08,53.4h-10.79l-11-53.4v53.4h-10.45Z"/>
      <path class="cls-4" d="M2232.67,86.13h-12.16l-4.87-15.35h-22.25l-4.59,15.35h-11.93l21.64-67.77h11.88l22.28,67.77ZM2212.03,59.31l-7.67-25.15-7.53,25.15h15.2Z"/>
      <path class="cls-4" d="M2251.08,86.13V29.82h-16.5v-11.47h44.15v11.47h-16.46v56.31h-11.19Z"/>
      <path class="cls-4" d="M2286.02,86.13V18.35h41.24v11.47h-30.05v15.02h27.92v11.42h-27.92v18.4h31.07v11.47h-42.25Z"/>
      <path class="cls-4" d="M2337.62,86.13V18.35h16.78l10.1,46.28,10.02-46.28h16.86v67.77h-10.45v-53.4l-11.08,53.4h-10.79l-11-53.4v53.4h-10.45Z"/>
      <path class="cls-4" d="M2452.59,86.13h-12.16l-4.87-15.35h-22.25l-4.59,15.35h-11.93l21.64-67.77h11.88l22.28,67.77ZM2431.95,59.31l-7.67-25.15-7.53,25.15h15.2ZM2418.75,13.82l5.24-13.82h12.01l-10.48,13.82h-6.77Z"/>
      <path class="cls-4" d="M2470.99,86.13V29.82h-16.5v-11.47h44.15v11.47h-16.46v56.31h-11.19Z"/>
      <path class="cls-4" d="M2505.57,86.13V18.35h11.19v67.77h-11.19Z"/>
      <path class="cls-4" d="M2563.08,61.21l10.86,4.21c-1.7,7.58-4.52,13.12-8.46,16.62-3.95,3.5-8.8,5.25-14.56,5.25-7.24,0-13.11-2.79-17.61-8.37-5.18-6.44-7.77-15.13-7.77-26.07,0-11.56,2.61-20.6,7.82-27.14,4.54-5.67,10.63-8.51,18.28-8.51,6.23,0,11.44,2.13,15.64,6.38,2.99,3.02,5.18,7.51,6.57,13.45l-11.1,3.24c-.71-3.67-2.12-6.48-4.24-8.44-2.12-1.96-4.61-2.94-7.48-2.94-4.11,0-7.46,1.79-10.05,5.36-2.59,3.58-3.89,9.48-3.89,17.71s1.26,14.61,3.79,18.21,5.81,5.41,9.85,5.41c2.96,0,5.52-1.15,7.67-3.44,2.16-2.3,3.71-5.94,4.67-10.93Z"/>
      <path class="cls-4" d="M2581.25,52.66c0-8.07,1.19-14.72,3.58-19.95,2.39-5.22,5.51-9.11,9.36-11.67,3.85-2.56,8.52-3.84,14.01-3.84,7.95,0,14.43,3.04,19.44,9.11,5.01,6.07,7.51,14.72,7.51,25.94s-2.65,20.2-7.95,26.58c-4.65,5.64-10.97,8.46-18.96,8.46s-14.39-2.79-19.05-8.37c-5.3-6.38-7.95-15.13-7.95-26.26ZM2592.81,52.19c0,7.8,1.48,13.65,4.44,17.54,2.96,3.9,6.64,5.85,11.02,5.85s8.07-1.93,10.97-5.8c2.9-3.87,4.35-9.81,4.35-17.82s-1.41-13.67-4.24-17.43c-2.82-3.76-6.52-5.64-11.09-5.64s-8.29,1.9-11.16,5.69c-2.87,3.79-4.31,9.66-4.31,17.61Z"/>
      <path class="cls-4" d="M2641.12,64.03l10.96-1.29c1.23,8.66,5.27,12.99,12.11,12.99,3.39,0,6.06-.89,8-2.66,1.94-1.77,2.91-3.97,2.91-6.59,0-1.54-.34-2.85-1.02-3.93-.68-1.08-1.71-1.96-3.1-2.66-1.39-.69-4.75-1.85-10.08-3.49-4.78-1.45-8.28-3.01-10.49-4.71-2.22-1.69-3.98-3.92-5.29-6.67-1.31-2.76-1.96-5.72-1.96-8.89,0-3.7.84-7.02,2.52-9.98,1.68-2.96,4-5.19,6.96-6.7,2.96-1.51,6.61-2.26,10.96-2.26,6.53,0,11.63,1.77,15.3,5.32,3.67,3.54,5.61,8.61,5.82,15.21l-11.23.6c-.49-3.64-1.56-6.18-3.19-7.63-1.63-1.45-3.96-2.17-6.98-2.17s-5.35.63-6.98,1.89c-1.63,1.26-2.45,2.83-2.45,4.7s.74,3.4,2.22,4.65c1.48,1.26,4.89,2.65,10.22,4.16,5.64,1.63,9.71,3.35,12.22,5.16,2.51,1.8,4.43,4.13,5.75,6.98s1.99,6.31,1.99,10.38c0,5.89-1.81,10.83-5.43,14.84-3.62,4.01-9.28,6.01-16.99,6.01-13.62,0-21.21-7.75-22.75-23.25Z"/>
      <path class="cls-4" d="M2760.16,18.35h20.46c5.17,0,9.08.58,11.71,1.73,2.63,1.16,5.06,3.1,7.27,5.85s3.96,6.3,5.22,10.68c1.26,4.38,1.89,9.82,1.89,16.32,0,5.86-.66,10.95-1.99,15.28-1.32,4.33-3,7.76-5.03,10.29-2.03,2.53-4.49,4.43-7.37,5.71-2.88,1.28-6.58,1.92-11.11,1.92h-21.06V18.35ZM2771.34,29.82v44.84h8.41c3.61,0,6.22-.34,7.84-1.02,1.62-.68,2.94-1.7,3.98-3.07,1.03-1.37,1.89-3.53,2.57-6.49.68-2.96,1.02-6.85,1.02-11.68s-.35-8.97-1.04-11.87c-.69-2.89-1.77-5.17-3.24-6.83-1.46-1.66-3.24-2.76-5.34-3.28-1.57-.4-4.61-.6-9.11-.6h-5.09Z"/>
      <path class="cls-4" d="M2816.28,86.13V18.35h41.24v11.47h-30.05v15.02h27.92v11.42h-27.92v18.4h31.07v11.47h-42.25Z"/>
      <path class="cls-4" d="M2868.34,86.13V18.91h11.19v55.75h27.92v11.47h-39.11Z"/>
      <path class="cls-4" d="M2994.22,61.21l10.86,4.21c-1.7,7.58-4.52,13.12-8.46,16.62-3.95,3.5-8.8,5.25-14.56,5.25-7.24,0-13.11-2.79-17.61-8.37-5.18-6.44-7.77-15.13-7.77-26.07,0-11.56,2.61-20.6,7.82-27.14,4.54-5.67,10.63-8.51,18.28-8.51,6.23,0,11.44,2.13,15.64,6.38,2.99,3.02,5.18,7.51,6.57,13.45l-11.1,3.24c-.71-3.67-2.12-6.48-4.24-8.44-2.12-1.96-4.61-2.94-7.48-2.94-4.11,0-7.46,1.79-10.05,5.36-2.59,3.58-3.89,9.48-3.89,17.71s1.26,14.61,3.79,18.21,5.81,5.41,9.85,5.41c2.96,0,5.52-1.15,7.67-3.44,2.16-2.3,3.71-5.94,4.67-10.93Z"/>
      <path class="cls-4" d="M3064.82,86.13h-12.16l-4.87-15.35h-22.25l-4.59,15.35h-11.93l21.64-67.77h11.88l22.28,67.77ZM3044.17,59.31l-7.67-25.15-7.53,25.15h15.2Z"/>
      <path class="cls-4" d="M3070.55,86.13V18.35h16.78l10.1,46.28,10.02-46.28h16.86v67.77h-10.45v-53.4l-11.08,53.4h-10.79l-11-53.4v53.4h-10.45Z"/>
      <path class="cls-4" d="M3135.36,86.13V18.35h18.03c6.72,0,11.11.32,13.18.97,3.3,1.05,6.02,3.28,8.16,6.7,2.14,3.42,3.21,7.83,3.21,13.22,0,4.9-.92,9.01-2.77,12.32-1.85,3.31-4.16,5.64-6.93,6.98-2.77,1.34-7.55,2.01-14.33,2.01h-7.35v25.57h-11.19ZM3146.55,29.82v19.28h6.21c4.17,0,7-.29,8.5-.88,1.5-.59,2.73-1.65,3.68-3.17.96-1.53,1.44-3.41,1.44-5.63s-.5-4.16-1.48-5.7c-.99-1.54-2.21-2.58-3.66-3.1-1.45-.53-4.53-.79-9.22-.79h-5.47Z"/>
      <path class="cls-4" d="M3184.88,52.66c0-8.07,1.19-14.72,3.58-19.95,2.39-5.22,5.51-9.11,9.36-11.67,3.85-2.56,8.52-3.84,14.01-3.84,7.95,0,14.43,3.04,19.44,9.11,5.01,6.07,7.51,14.72,7.51,25.94s-2.65,20.2-7.95,26.58c-4.65,5.64-10.97,8.46-18.96,8.46s-14.39-2.79-19.05-8.37c-5.3-6.38-7.95-15.13-7.95-26.26ZM3196.43,52.19c0,7.8,1.48,13.65,4.44,17.54,2.96,3.9,6.64,5.85,11.02,5.85s8.07-1.93,10.97-5.8c2.9-3.87,4.35-9.81,4.35-17.82s-1.41-13.67-4.24-17.43c-2.82-3.76-6.52-5.64-11.09-5.64s-8.29,1.9-11.16,5.69c-2.87,3.79-4.31,9.66-4.31,17.61Z"/>
      <path class="cls-4" d="M3340.9,86.13h-12.16l-4.87-15.35h-22.25l-4.59,15.35h-11.93l21.64-67.77h11.88l22.28,67.77ZM3320.26,59.31l-7.67-25.15-7.53,25.15h15.2Z"/>
      <path class="cls-4" d="M3346.73,18.35h20.46c5.17,0,9.08.58,11.71,1.73,2.63,1.16,5.06,3.1,7.27,5.85s3.96,6.3,5.22,10.68c1.26,4.38,1.89,9.82,1.89,16.32,0,5.86-.66,10.95-1.99,15.28-1.32,4.33-3,7.76-5.03,10.29-2.03,2.53-4.49,4.43-7.37,5.71-2.88,1.28-6.58,1.92-11.11,1.92h-21.06V18.35ZM3357.92,29.82v44.84h8.41c3.61,0,6.22-.34,7.84-1.02,1.62-.68,2.94-1.7,3.98-3.07,1.03-1.37,1.89-3.53,2.57-6.49.68-2.96,1.02-6.85,1.02-11.68s-.35-8.97-1.04-11.87c-.69-2.89-1.77-5.17-3.24-6.83-1.46-1.66-3.24-2.76-5.34-3.28-1.57-.4-4.61-.6-9.11-.6h-5.09Z"/>
      <path class="cls-4" d="M3402.48,86.13V18.35h11.19v67.77h-11.19Z"/>
      <path class="cls-4" d="M3436.92,86.13V29.82h-16.5v-11.47h44.15v11.47h-16.46v56.31h-11.19Z"/>
      <path class="cls-4" d="M3471.5,86.13V18.35h11.19v67.77h-11.19Z"/>
      <path class="cls-4" d="M3507.66,86.13l-19.88-67.77h12.16l14.08,50.16,13.61-50.16h11.93l-19.93,67.77h-11.96Z"/>
      <path class="cls-4" d="M3542.93,52.66c0-8.07,1.19-14.72,3.58-19.95,2.39-5.22,5.51-9.11,9.36-11.67,3.85-2.56,8.52-3.84,14.01-3.84,7.95,0,14.43,3.04,19.44,9.11,5.01,6.07,7.51,14.72,7.51,25.94s-2.65,20.2-7.95,26.58c-4.65,5.64-10.97,8.46-18.96,8.46s-14.39-2.79-19.05-8.37c-5.3-6.38-7.95-15.13-7.95-26.26ZM3554.49,52.19c0,7.8,1.48,13.65,4.44,17.54,2.96,3.9,6.64,5.85,11.02,5.85s8.07-1.93,10.97-5.8c2.9-3.87,4.35-9.81,4.35-17.82s-1.41-13.67-4.24-17.43c-2.82-3.76-6.52-5.64-11.09-5.64s-8.29,1.9-11.16,5.69c-2.87,3.79-4.31,9.66-4.31,17.61Z"/>
    </g>
    <line class="cls-1" y1="208.12" x2="3928.5" y2="208.12"/>
    <line class="cls-1" x1="327.82" y1="95.53" x2="327.82" y2="2698.39"/>
    <line class="cls-1" x1="963.82" y1="95.53" x2="963.82" y2="2699.05"/>
    <line class="cls-1" x1="1661.33" y1="95.53" x2="1661.33" y2="2699.05"/>
    <line class="cls-1" x1="2263.6" y1="95.53" x2="2263.6" y2="2699.05"/>
    <line class="cls-1" x1="2935.31" y1="95.53" x2="2935.31" y2="2699.05"/>
    <line class="cls-1" x1="3499.87" y1="95.07" x2="3499.87" y2="2699.05"/>
    <line class="cls-1" y1="2064.38" x2="3928.5" y2="2064.38"/>
    <line class="cls-1" y1="946.17" x2="3928.5" y2="946.17"/>
  </g>
</svg>