<svg width="21" height="20" viewBox="0 0 21 20" fill="none" xmlns="http://www.w3.org/2000/svg">
<path d="M3.53564 6V12L3.92998 17.1526C4.00975 18.1949 4.87877 19 5.92415 19H15.0757C16.1211 19 16.9901 18.1949 17.0699 17.1526L17.4642 12V6" stroke="#003D52" stroke-width="2"/>
<mask id="path-2-inside-1_945_6164" fill="white">
<path d="M15 3.5293L7 3.5293L7 0.999885C7 0.4476 7.44772 -0.000114624 8 -0.000114576L14 -0.000114052C14.5523 -0.000114003 15 0.447601 15 0.999886L15 3.5293Z"/>
</mask>
<path d="M15 3.5293L7 3.5293L7 0.999885C7 0.4476 7.44772 -0.000114624 8 -0.000114576L14 -0.000114052C14.5523 -0.000114003 15 0.447601 15 0.999886L15 3.5293Z" stroke="#003D52" stroke-width="3.52941" mask="url(#path-2-inside-1_945_6164)"/>
<path d="M1 3H20" stroke="#003D52" stroke-width="2" stroke-linecap="round"/>
</svg>
